# Boca de cueva modular para #651
mtllib mari.mtl
s off
o jamba_izquierda
usemtl roca_seca
v -2.20 0.00 -0.55
v -0.95 0.00 -0.42
v -0.78 2.35 -0.30
v -2.05 2.05 -0.55
v -2.20 0.00 0.55
v -0.95 0.00 0.42
v -0.78 2.35 0.30
v -2.05 2.05 0.55
f 1 2 3 4
f 5 8 7 6
f 1 5 6 2
f 2 6 7 3
f 3 7 8 4
f 5 1 4 8

o jamba_derecha
usemtl roca_humeda
v 0.95 0.00 -0.42
v 2.20 0.00 -0.55
v 2.05 2.05 -0.55
v 0.78 2.35 -0.30
v 0.95 0.00 0.42
v 2.20 0.00 0.55
v 2.05 2.05 0.55
v 0.78 2.35 0.30
f 9 10 11 12
f 13 16 15 14
f 9 13 14 10
f 10 14 15 11
f 11 15 16 12
f 13 9 12 16

o visera
usemtl roca_seca
v -2.05 1.95 -0.62
v 2.05 1.95 -0.62
v 1.45 3.10 -0.42
v -1.55 3.28 -0.48
v -2.05 1.95 0.62
v 2.05 1.95 0.62
v 1.45 3.10 0.42
v -1.55 3.28 0.48
f 17 18 19 20
f 21 24 23 22
f 17 21 22 18
f 18 22 23 19
f 19 23 24 20
f 21 17 20 24

o roca_frontal_izq
usemtl roca_humeda
v -2.65 -0.05 -0.80
v -1.65 -0.05 -0.75
v -1.55 0.75 -0.55
v -2.45 0.95 -0.68
v -2.65 -0.05 0.80
v -1.65 -0.05 0.75
v -1.55 0.75 0.55
v -2.45 0.95 0.68
f 25 26 27 28
f 29 32 31 30
f 25 29 30 26
f 26 30 31 27
f 27 31 32 28
f 29 25 28 32

o roca_frontal_der
usemtl estrato_claro
v 1.60 -0.05 -0.72
v 2.55 -0.05 -0.82
v 2.40 0.85 -0.62
v 1.52 0.66 -0.52
v 1.60 -0.05 0.72
v 2.55 -0.05 0.82
v 2.40 0.85 0.62
v 1.52 0.66 0.52
f 33 34 35 36
f 37 40 39 38
f 33 37 38 34
f 34 38 39 35
f 35 39 40 36
f 37 33 36 40
