# Módulo de pared estratificada para #651
mtllib mari.mtl
s off
o estrato_inferior
usemtl roca_humeda
v -2.50 0.00 -0.30
v 2.50 0.00 -0.30
v 2.30 0.62 -0.22
v -2.40 0.48 -0.24
v -2.50 0.00 0.30
v 2.50 0.00 0.30
v 2.30 0.62 0.22
v -2.40 0.48 0.24
f 1 2 3 4
f 5 8 7 6
f 1 5 6 2
f 2 6 7 3
f 3 7 8 4
f 5 1 4 8

o estrato_medio
usemtl roca_seca
v -2.40 0.48 -0.24
v 2.30 0.62 -0.22
v 2.45 1.38 -0.27
v -2.20 1.24 -0.20
v -2.40 0.48 0.24
v 2.30 0.62 0.22
v 2.45 1.38 0.27
v -2.20 1.24 0.20
f 9 10 11 12
f 13 16 15 14
f 9 13 14 10
f 10 14 15 11
f 11 15 16 12
f 13 9 12 16

o estrato_superior
usemtl estrato_claro
v -2.20 1.24 -0.20
v 2.45 1.38 -0.27
v 2.20 2.15 -0.22
v -2.55 2.02 -0.30
v -2.20 1.24 0.20
v 2.45 1.38 0.27
v 2.20 2.15 0.22
v -2.55 2.02 0.30
f 17 18 19 20
f 21 24 23 22
f 17 21 22 18
f 18 22 23 19
f 19 23 24 20
f 21 17 20 24
