# Asset original de primera parte para #934
mtllib religion_934.mtl
s off
o cuerpo
usemtl piedra_clara
v -0.8250 0.0700 -0.3500
v 0.8250 0.0700 -0.3500
v 0.8250 0.8900 -0.3500
v -0.8250 0.8900 -0.3500
v -0.8250 0.0700 0.3500
v 0.8250 0.0700 0.3500
v 0.8250 0.8900 0.3500
v -0.8250 0.8900 0.3500
f 1 2 3 4
f 5 8 7 6
f 1 5 6 2
f 2 6 7 3
f 3 7 8 4
f 5 1 4 8
o tablero
usemtl piedra_clara
v -0.9250 0.8900 -0.4100
v 0.9250 0.8900 -0.4100
v 0.9250 0.9900 -0.4100
v -0.9250 0.9900 -0.4100
v -0.9250 0.8900 0.4100
v 0.9250 0.8900 0.4100
v 0.9250 0.9900 0.4100
v -0.9250 0.9900 0.4100
f 9 10 11 12
f 13 16 15 14
f 9 13 14 10
f 10 14 15 11
f 11 15 16 12
f 13 9 12 16
o cruz_vertical
usemtl metal_latón
v -0.0600 0.2900 -0.3850
v 0.0600 0.2900 -0.3850
v 0.0600 0.7100 -0.3850
v -0.0600 0.7100 -0.3850
v -0.0600 0.2900 -0.3450
v 0.0600 0.2900 -0.3450
v 0.0600 0.7100 -0.3450
v -0.0600 0.7100 -0.3450
f 17 18 19 20
f 21 24 23 22
f 17 21 22 18
f 18 22 23 19
f 19 23 24 20
f 21 17 20 24
o cruz_horizontal
usemtl metal_latón
v -0.1700 0.5100 -0.4050
v 0.1700 0.5100 -0.4050
v 0.1700 0.6100 -0.4050
v -0.1700 0.6100 -0.4050
v -0.1700 0.5100 -0.3650
v 0.1700 0.5100 -0.3650
v 0.1700 0.6100 -0.3650
v -0.1700 0.6100 -0.3650
f 25 26 27 28
f 29 32 31 30
f 25 29 30 26
f 26 30 31 27
f 27 31 32 28
f 29 25 28 32
