# Asset original de primera parte para #934
mtllib religion_934.mtl
s off
o base
usemtl madera_oscura
v -0.3250 0.0000 -0.2500
v 0.3250 0.0000 -0.2500
v 0.3250 0.1200 -0.2500
v -0.3250 0.1200 -0.2500
v -0.3250 0.0000 0.2500
v 0.3250 0.0000 0.2500
v 0.3250 0.1200 0.2500
v -0.3250 0.1200 0.2500
f 1 2 3 4
f 5 8 7 6
f 1 5 6 2
f 2 6 7 3
f 3 7 8 4
f 5 1 4 8
o pie
usemtl madera_media
v -0.0900 0.0600 -0.0900
v 0.0900 0.0600 -0.0900
v 0.0900 1.2400 -0.0900
v -0.0900 1.2400 -0.0900
v -0.0900 0.0600 0.0900
v 0.0900 0.0600 0.0900
v 0.0900 1.2400 0.0900
v -0.0900 1.2400 0.0900
f 9 10 11 12
f 13 16 15 14
f 9 13 14 10
f 10 14 15 11
f 11 15 16 12
f 13 9 12 16
o tablero
usemtl madera_media
v -0.3900 1.2100 -0.2800
v 0.3900 1.2100 -0.2800
v 0.3900 1.3100 -0.2800
v -0.3900 1.3100 -0.2800
v -0.3900 1.2100 0.2400
v 0.3900 1.2100 0.2400
v 0.3900 1.3100 0.2400
v -0.3900 1.3100 0.2400
f 17 18 19 20
f 21 24 23 22
f 17 21 22 18
f 18 22 23 19
f 19 23 24 20
f 21 17 20 24
o tope
usemtl madera_oscura
v -0.3900 1.1800 -0.2800
v 0.3900 1.1800 -0.2800
v 0.3900 1.2600 -0.2800
v -0.3900 1.2600 -0.2800
v -0.3900 1.1800 -0.2200
v 0.3900 1.1800 -0.2200
v 0.3900 1.2600 -0.2200
v -0.3900 1.2600 -0.2200
f 25 26 27 28
f 29 32 31 30
f 25 29 30 26
f 26 30 31 27
f 27 31 32 28
f 29 25 28 32
o libro
usemtl papel_marfil
v -0.2800 1.3025 -0.2000
v 0.2800 1.3025 -0.2000
v 0.2800 1.3575 -0.2000
v -0.2800 1.3575 -0.2000
v -0.2800 1.3025 0.1600
v 0.2800 1.3025 0.1600
v 0.2800 1.3575 0.1600
v -0.2800 1.3575 0.1600
f 33 34 35 36
f 37 40 39 38
f 33 37 38 34
f 34 38 39 35
f 35 39 40 36
f 37 33 36 40
