# Asset original de primera parte para #934
mtllib religion_934.mtl
s off
o asiento
usemtl madera_media
v -0.9000 0.4600 -0.2400
v 0.9000 0.4600 -0.2400
v 0.9000 0.5800 -0.2400
v -0.9000 0.5800 -0.2400
v -0.9000 0.4600 0.2400
v 0.9000 0.4600 0.2400
v 0.9000 0.5800 0.2400
v -0.9000 0.5800 0.2400
f 1 2 3 4
f 5 8 7 6
f 1 5 6 2
f 2 6 7 3
f 3 7 8 4
f 5 1 4 8
o respaldo
usemtl madera_oscura
v -0.9000 0.6200 0.1500
v 0.9000 0.6200 0.1500
v 0.9000 1.3400 0.1500
v -0.9000 1.3400 0.1500
v -0.9000 0.6200 0.2500
v 0.9000 0.6200 0.2500
v 0.9000 1.3400 0.2500
v -0.9000 1.3400 0.2500
f 9 10 11 12
f 13 16 15 14
f 9 13 14 10
f 10 14 15 11
f 11 15 16 12
f 13 9 12 16
o pata_izq
usemtl madera_oscura
v -0.7500 0.0000 -0.2100
v -0.6100 0.0000 -0.2100
v -0.6100 0.5000 -0.2100
v -0.7500 0.5000 -0.2100
v -0.7500 0.0000 0.2100
v -0.6100 0.0000 0.2100
v -0.6100 0.5000 0.2100
v -0.7500 0.5000 0.2100
f 17 18 19 20
f 21 24 23 22
f 17 21 22 18
f 18 22 23 19
f 19 23 24 20
f 21 17 20 24
o pata_der
usemtl madera_oscura
v 0.6100 0.0000 -0.2100
v 0.7500 0.0000 -0.2100
v 0.7500 0.5000 -0.2100
v 0.6100 0.5000 -0.2100
v 0.6100 0.0000 0.2100
v 0.7500 0.0000 0.2100
v 0.7500 0.5000 0.2100
v 0.6100 0.5000 0.2100
f 25 26 27 28
f 29 32 31 30
f 25 29 30 26
f 26 30 31 27
f 27 31 32 28
f 29 25 28 32
