# Original asset for Expediente Legado — no trademarks/logos
mtllib props_originales_98.mtl
o cuenco_gato_98
v 0.14000 0.00000 0.00000
v 0.18500 0.11000 0.00000
v 0.13523 0.00000 0.03623
v 0.17870 0.11000 0.04788
v 0.12124 0.00000 0.07000
v 0.16021 0.11000 0.09250
v 0.09899 0.00000 0.09899
v 0.13081 0.11000 0.13081
v 0.07000 0.00000 0.12124
v 0.09250 0.11000 0.16021
v 0.03623 0.00000 0.13523
v 0.04788 0.11000 0.17870
v 0.00000 0.00000 0.14000
v 0.00000 0.11000 0.18500
v -0.03623 0.00000 0.13523
v -0.04788 0.11000 0.17870
v -0.07000 0.00000 0.12124
v -0.09250 0.11000 0.16021
v -0.09899 0.00000 0.09899
v -0.13081 0.11000 0.13081
v -0.12124 0.00000 0.07000
v -0.16021 0.11000 0.09250
v -0.13523 0.00000 0.03623
v -0.17870 0.11000 0.04788
v -0.14000 0.00000 0.00000
v -0.18500 0.11000 0.00000
v -0.13523 0.00000 -0.03623
v -0.17870 0.11000 -0.04788
v -0.12124 0.00000 -0.07000
v -0.16021 0.11000 -0.09250
v -0.09899 0.00000 -0.09899
v -0.13081 0.11000 -0.13081
v -0.07000 0.00000 -0.12124
v -0.09250 0.11000 -0.16021
v -0.03623 0.00000 -0.13523
v -0.04788 0.11000 -0.17870
v -0.00000 0.00000 -0.14000
v -0.00000 0.11000 -0.18500
v 0.03623 0.00000 -0.13523
v 0.04788 0.11000 -0.17870
v 0.07000 0.00000 -0.12124
v 0.09250 0.11000 -0.16021
v 0.09899 0.00000 -0.09899
v 0.13081 0.11000 -0.13081
v 0.12124 0.00000 -0.07000
v 0.16021 0.11000 -0.09250
v 0.13523 0.00000 -0.03623
v 0.17870 0.11000 -0.04788
v 0.00000 0.00000 0.00000
v 0.00000 0.11000 0.00000
usemtl metal_mate
f 1 3 4 2
f 3 5 6 4
f 5 7 8 6
f 7 9 10 8
f 9 11 12 10
f 11 13 14 12
f 13 15 16 14
f 15 17 18 16
f 17 19 20 18
f 19 21 22 20
f 21 23 24 22
f 23 25 26 24
f 25 27 28 26
f 27 29 30 28
f 29 31 32 30
f 31 33 34 32
f 33 35 36 34
f 35 37 38 36
f 37 39 40 38
f 39 41 42 40
f 41 43 44 42
f 43 45 46 44
f 45 47 48 46
f 47 1 2 48
f 49 3 1
f 50 2 4
f 49 5 3
f 50 4 6
f 49 7 5
f 50 6 8
f 49 9 7
f 50 8 10
f 49 11 9
f 50 10 12
f 49 13 11
f 50 12 14
f 49 15 13
f 50 14 16
f 49 17 15
f 50 16 18
f 49 19 17
f 50 18 20
f 49 21 19
f 50 20 22
f 49 23 21
f 50 22 24
f 49 25 23
f 50 24 26
f 49 27 25
f 50 26 28
f 49 29 27
f 50 28 30
f 49 31 29
f 50 30 32
f 49 33 31
f 50 32 34
f 49 35 33
f 50 34 36
f 49 37 35
f 50 36 38
f 49 39 37
f 50 38 40
f 49 41 39
f 50 40 42
f 49 43 41
f 50 42 44
f 49 45 43
f 50 44 46
f 49 47 45
f 50 46 48
f 49 1 47
f 50 48 2
v 0.13500 0.10900 0.00000
v 0.13500 0.12100 0.00000
v 0.13040 0.10900 0.03494
v 0.13040 0.12100 0.03494
v 0.11691 0.10900 0.06750
v 0.11691 0.12100 0.06750
v 0.09546 0.10900 0.09546
v 0.09546 0.12100 0.09546
v 0.06750 0.10900 0.11691
v 0.06750 0.12100 0.11691
v 0.03494 0.10900 0.13040
v 0.03494 0.12100 0.13040
v 0.00000 0.10900 0.13500
v 0.00000 0.12100 0.13500
v -0.03494 0.10900 0.13040
v -0.03494 0.12100 0.13040
v -0.06750 0.10900 0.11691
v -0.06750 0.12100 0.11691
v -0.09546 0.10900 0.09546
v -0.09546 0.12100 0.09546
v -0.11691 0.10900 0.06750
v -0.11691 0.12100 0.06750
v -0.13040 0.10900 0.03494
v -0.13040 0.12100 0.03494
v -0.13500 0.10900 0.00000
v -0.13500 0.12100 0.00000
v -0.13040 0.10900 -0.03494
v -0.13040 0.12100 -0.03494
v -0.11691 0.10900 -0.06750
v -0.11691 0.12100 -0.06750
v -0.09546 0.10900 -0.09546
v -0.09546 0.12100 -0.09546
v -0.06750 0.10900 -0.11691
v -0.06750 0.12100 -0.11691
v -0.03494 0.10900 -0.13040
v -0.03494 0.12100 -0.13040
v -0.00000 0.10900 -0.13500
v -0.00000 0.12100 -0.13500
v 0.03494 0.10900 -0.13040
v 0.03494 0.12100 -0.13040
v 0.06750 0.10900 -0.11691
v 0.06750 0.12100 -0.11691
v 0.09546 0.10900 -0.09546
v 0.09546 0.12100 -0.09546
v 0.11691 0.10900 -0.06750
v 0.11691 0.12100 -0.06750
v 0.13040 0.10900 -0.03494
v 0.13040 0.12100 -0.03494
v 0.00000 0.10900 0.00000
v 0.00000 0.12100 0.00000
usemtl plastico_oscuro
f 51 53 54 52
f 53 55 56 54
f 55 57 58 56
f 57 59 60 58
f 59 61 62 60
f 61 63 64 62
f 63 65 66 64
f 65 67 68 66
f 67 69 70 68
f 69 71 72 70
f 71 73 74 72
f 73 75 76 74
f 75 77 78 76
f 77 79 80 78
f 79 81 82 80
f 81 83 84 82
f 83 85 86 84
f 85 87 88 86
f 87 89 90 88
f 89 91 92 90
f 91 93 94 92
f 93 95 96 94
f 95 97 98 96
f 97 51 52 98
f 99 53 51
f 100 52 54
f 99 55 53
f 100 54 56
f 99 57 55
f 100 56 58
f 99 59 57
f 100 58 60
f 99 61 59
f 100 60 62
f 99 63 61
f 100 62 64
f 99 65 63
f 100 64 66
f 99 67 65
f 100 66 68
f 99 69 67
f 100 68 70
f 99 71 69
f 100 70 72
f 99 73 71
f 100 72 74
f 99 75 73
f 100 74 76
f 99 77 75
f 100 76 78
f 99 79 77
f 100 78 80
f 99 81 79
f 100 80 82
f 99 83 81
f 100 82 84
f 99 85 83
f 100 84 86
f 99 87 85
f 100 86 88
f 99 89 87
f 100 88 90
f 99 91 89
f 100 90 92
f 99 93 91
f 100 92 94
f 99 95 93
f 100 94 96
f 99 97 95
f 100 96 98
f 99 51 97
f 100 98 52
v 0.16500 0.00000 0.00000
v 0.14500 0.02400 0.00000
v 0.15938 0.00000 0.04271
v 0.14006 0.02400 0.03753
v 0.14289 0.00000 0.08250
v 0.12557 0.02400 0.07250
v 0.11667 0.00000 0.11667
v 0.10253 0.02400 0.10253
v 0.08250 0.00000 0.14289
v 0.07250 0.02400 0.12557
v 0.04271 0.00000 0.15938
v 0.03753 0.02400 0.14006
v 0.00000 0.00000 0.16500
v 0.00000 0.02400 0.14500
v -0.04271 0.00000 0.15938
v -0.03753 0.02400 0.14006
v -0.08250 0.00000 0.14289
v -0.07250 0.02400 0.12557
v -0.11667 0.00000 0.11667
v -0.10253 0.02400 0.10253
v -0.14289 0.00000 0.08250
v -0.12557 0.02400 0.07250
v -0.15938 0.00000 0.04271
v -0.14006 0.02400 0.03753
v -0.16500 0.00000 0.00000
v -0.14500 0.02400 0.00000
v -0.15938 0.00000 -0.04271
v -0.14006 0.02400 -0.03753
v -0.14289 0.00000 -0.08250
v -0.12557 0.02400 -0.07250
v -0.11667 0.00000 -0.11667
v -0.10253 0.02400 -0.10253
v -0.08250 0.00000 -0.14289
v -0.07250 0.02400 -0.12557
v -0.04271 0.00000 -0.15938
v -0.03753 0.02400 -0.14006
v -0.00000 0.00000 -0.16500
v -0.00000 0.02400 -0.14500
v 0.04271 0.00000 -0.15938
v 0.03753 0.02400 -0.14006
v 0.08250 0.00000 -0.14289
v 0.07250 0.02400 -0.12557
v 0.11667 0.00000 -0.11667
v 0.10253 0.02400 -0.10253
v 0.14289 0.00000 -0.08250
v 0.12557 0.02400 -0.07250
v 0.15938 0.00000 -0.04271
v 0.14006 0.02400 -0.03753
v 0.00000 0.00000 0.00000
v 0.00000 0.02400 0.00000
usemtl goma
f 101 103 104 102
f 103 105 106 104
f 105 107 108 106
f 107 109 110 108
f 109 111 112 110
f 111 113 114 112
f 113 115 116 114
f 115 117 118 116
f 117 119 120 118
f 119 121 122 120
f 121 123 124 122
f 123 125 126 124
f 125 127 128 126
f 127 129 130 128
f 129 131 132 130
f 131 133 134 132
f 133 135 136 134
f 135 137 138 136
f 137 139 140 138
f 139 141 142 140
f 141 143 144 142
f 143 145 146 144
f 145 147 148 146
f 147 101 102 148
f 149 103 101
f 150 102 104
f 149 105 103
f 150 104 106
f 149 107 105
f 150 106 108
f 149 109 107
f 150 108 110
f 149 111 109
f 150 110 112
f 149 113 111
f 150 112 114
f 149 115 113
f 150 114 116
f 149 117 115
f 150 116 118
f 149 119 117
f 150 118 120
f 149 121 119
f 150 120 122
f 149 123 121
f 150 122 124
f 149 125 123
f 150 124 126
f 149 127 125
f 150 126 128
f 149 129 127
f 150 128 130
f 149 131 129
f 150 130 132
f 149 133 131
f 150 132 134
f 149 135 133
f 150 134 136
f 149 137 135
f 150 136 138
f 149 139 137
f 150 138 140
f 149 141 139
f 150 140 142
f 149 143 141
f 150 142 144
f 149 145 143
f 150 144 146
f 149 147 145
f 150 146 148
f 149 101 147
f 150 148 102
