# Original asset for Expediente Legado — no trademarks/logos
mtllib props_originales_98.mtl
o minicadena_98
v -0.39000 0.02000 -0.14000
v 0.39000 0.02000 -0.14000
v 0.39000 0.38000 -0.14000
v -0.39000 0.38000 -0.14000
v -0.39000 0.02000 0.14000
v 0.39000 0.02000 0.14000
v 0.39000 0.38000 0.14000
v -0.39000 0.38000 0.14000
usemtl plastico_oscuro
f 1 2 3 4
f 6 5 8 7
f 5 1 4 8
f 2 6 7 3
f 4 3 7 8
f 5 6 2 1
v -0.15500 0.15250 0.13900
v 0.15500 0.15250 0.13900
v 0.15500 0.31750 0.13900
v -0.15500 0.31750 0.13900
v -0.15500 0.15250 0.15700
v 0.15500 0.15250 0.15700
v 0.15500 0.31750 0.15700
v -0.15500 0.31750 0.15700
usemtl vidrio_oscuro
f 9 10 11 12
f 14 13 16 15
f 13 9 12 16
f 10 14 15 11
f 12 11 15 16
f 13 14 10 9
v -0.13500 0.07000 0.14300
v 0.13500 0.07000 0.14300
v 0.13500 0.13000 0.14300
v -0.13500 0.13000 0.14300
v -0.13500 0.07000 0.15900
v 0.13500 0.07000 0.15900
v 0.13500 0.13000 0.15900
v -0.13500 0.13000 0.15900
usemtl plastico_beige
f 17 18 19 20
f 22 21 24 23
f 21 17 20 24
f 18 22 23 19
f 20 19 23 24
f 21 22 18 17
v -0.14500 0.19900 0.15400
v -0.14500 0.22100 0.15400
v -0.15014 0.19900 0.18645
v -0.15014 0.22100 0.18645
v -0.16505 0.19900 0.21572
v -0.16505 0.22100 0.21572
v -0.18828 0.19900 0.23895
v -0.18828 0.22100 0.23895
v -0.21755 0.19900 0.25386
v -0.21755 0.22100 0.25386
v -0.25000 0.19900 0.25900
v -0.25000 0.22100 0.25900
v -0.28245 0.19900 0.25386
v -0.28245 0.22100 0.25386
v -0.31172 0.19900 0.23895
v -0.31172 0.22100 0.23895
v -0.33495 0.19900 0.21572
v -0.33495 0.22100 0.21572
v -0.34986 0.19900 0.18645
v -0.34986 0.22100 0.18645
v -0.35500 0.19900 0.15400
v -0.35500 0.22100 0.15400
v -0.34986 0.19900 0.12155
v -0.34986 0.22100 0.12155
v -0.33495 0.19900 0.09228
v -0.33495 0.22100 0.09228
v -0.31172 0.19900 0.06905
v -0.31172 0.22100 0.06905
v -0.28245 0.19900 0.05414
v -0.28245 0.22100 0.05414
v -0.25000 0.19900 0.04900
v -0.25000 0.22100 0.04900
v -0.21755 0.19900 0.05414
v -0.21755 0.22100 0.05414
v -0.18828 0.19900 0.06905
v -0.18828 0.22100 0.06905
v -0.16505 0.19900 0.09228
v -0.16505 0.22100 0.09228
v -0.15014 0.19900 0.12155
v -0.15014 0.22100 0.12155
v -0.25000 0.19900 0.15400
v -0.25000 0.22100 0.15400
usemtl goma
f 25 27 28 26
f 27 29 30 28
f 29 31 32 30
f 31 33 34 32
f 33 35 36 34
f 35 37 38 36
f 37 39 40 38
f 39 41 42 40
f 41 43 44 42
f 43 45 46 44
f 45 47 48 46
f 47 49 50 48
f 49 51 52 50
f 51 53 54 52
f 53 55 56 54
f 55 57 58 56
f 57 59 60 58
f 59 61 62 60
f 61 63 64 62
f 63 25 26 64
f 65 27 25
f 66 26 28
f 65 29 27
f 66 28 30
f 65 31 29
f 66 30 32
f 65 33 31
f 66 32 34
f 65 35 33
f 66 34 36
f 65 37 35
f 66 36 38
f 65 39 37
f 66 38 40
f 65 41 39
f 66 40 42
f 65 43 41
f 66 42 44
f 65 45 43
f 66 44 46
f 65 47 45
f 66 46 48
f 65 49 47
f 66 48 50
f 65 51 49
f 66 50 52
f 65 53 51
f 66 52 54
f 65 55 53
f 66 54 56
f 65 57 55
f 66 56 58
f 65 59 57
f 66 58 60
f 65 61 59
f 66 60 62
f 65 63 61
f 66 62 64
f 65 25 63
f 66 64 26
v -0.18500 0.20400 0.16700
v -0.18500 0.21600 0.16700
v -0.18818 0.20400 0.18709
v -0.18818 0.21600 0.18709
v -0.19741 0.20400 0.20521
v -0.19741 0.21600 0.20521
v -0.21179 0.20400 0.21959
v -0.21179 0.21600 0.21959
v -0.22991 0.20400 0.22882
v -0.22991 0.21600 0.22882
v -0.25000 0.20400 0.23200
v -0.25000 0.21600 0.23200
v -0.27009 0.20400 0.22882
v -0.27009 0.21600 0.22882
v -0.28821 0.20400 0.21959
v -0.28821 0.21600 0.21959
v -0.30259 0.20400 0.20521
v -0.30259 0.21600 0.20521
v -0.31182 0.20400 0.18709
v -0.31182 0.21600 0.18709
v -0.31500 0.20400 0.16700
v -0.31500 0.21600 0.16700
v -0.31182 0.20400 0.14691
v -0.31182 0.21600 0.14691
v -0.30259 0.20400 0.12879
v -0.30259 0.21600 0.12879
v -0.28821 0.20400 0.11441
v -0.28821 0.21600 0.11441
v -0.27009 0.20400 0.10518
v -0.27009 0.21600 0.10518
v -0.25000 0.20400 0.10200
v -0.25000 0.21600 0.10200
v -0.22991 0.20400 0.10518
v -0.22991 0.21600 0.10518
v -0.21179 0.20400 0.11441
v -0.21179 0.21600 0.11441
v -0.19741 0.20400 0.12879
v -0.19741 0.21600 0.12879
v -0.18818 0.20400 0.14691
v -0.18818 0.21600 0.14691
v -0.25000 0.20400 0.16700
v -0.25000 0.21600 0.16700
usemtl plastico_oscuro
f 67 69 70 68
f 69 71 72 70
f 71 73 74 72
f 73 75 76 74
f 75 77 78 76
f 77 79 80 78
f 79 81 82 80
f 81 83 84 82
f 83 85 86 84
f 85 87 88 86
f 87 89 90 88
f 89 91 92 90
f 91 93 94 92
f 93 95 96 94
f 95 97 98 96
f 97 99 100 98
f 99 101 102 100
f 101 103 104 102
f 103 105 106 104
f 105 67 68 106
f 107 69 67
f 108 68 70
f 107 71 69
f 108 70 72
f 107 73 71
f 108 72 74
f 107 75 73
f 108 74 76
f 107 77 75
f 108 76 78
f 107 79 77
f 108 78 80
f 107 81 79
f 108 80 82
f 107 83 81
f 108 82 84
f 107 85 83
f 108 84 86
f 107 87 85
f 108 86 88
f 107 89 87
f 108 88 90
f 107 91 89
f 108 90 92
f 107 93 91
f 108 92 94
f 107 95 93
f 108 94 96
f 107 97 95
f 108 96 98
f 107 99 97
f 108 98 100
f 107 101 99
f 108 100 102
f 107 103 101
f 108 102 104
f 107 105 103
f 108 104 106
f 107 67 105
f 108 106 68
v 0.35500 0.19900 0.15400
v 0.35500 0.22100 0.15400
v 0.34986 0.19900 0.18645
v 0.34986 0.22100 0.18645
v 0.33495 0.19900 0.21572
v 0.33495 0.22100 0.21572
v 0.31172 0.19900 0.23895
v 0.31172 0.22100 0.23895
v 0.28245 0.19900 0.25386
v 0.28245 0.22100 0.25386
v 0.25000 0.19900 0.25900
v 0.25000 0.22100 0.25900
v 0.21755 0.19900 0.25386
v 0.21755 0.22100 0.25386
v 0.18828 0.19900 0.23895
v 0.18828 0.22100 0.23895
v 0.16505 0.19900 0.21572
v 0.16505 0.22100 0.21572
v 0.15014 0.19900 0.18645
v 0.15014 0.22100 0.18645
v 0.14500 0.19900 0.15400
v 0.14500 0.22100 0.15400
v 0.15014 0.19900 0.12155
v 0.15014 0.22100 0.12155
v 0.16505 0.19900 0.09228
v 0.16505 0.22100 0.09228
v 0.18828 0.19900 0.06905
v 0.18828 0.22100 0.06905
v 0.21755 0.19900 0.05414
v 0.21755 0.22100 0.05414
v 0.25000 0.19900 0.04900
v 0.25000 0.22100 0.04900
v 0.28245 0.19900 0.05414
v 0.28245 0.22100 0.05414
v 0.31172 0.19900 0.06905
v 0.31172 0.22100 0.06905
v 0.33495 0.19900 0.09228
v 0.33495 0.22100 0.09228
v 0.34986 0.19900 0.12155
v 0.34986 0.22100 0.12155
v 0.25000 0.19900 0.15400
v 0.25000 0.22100 0.15400
usemtl goma
f 109 111 112 110
f 111 113 114 112
f 113 115 116 114
f 115 117 118 116
f 117 119 120 118
f 119 121 122 120
f 121 123 124 122
f 123 125 126 124
f 125 127 128 126
f 127 129 130 128
f 129 131 132 130
f 131 133 134 132
f 133 135 136 134
f 135 137 138 136
f 137 139 140 138
f 139 141 142 140
f 141 143 144 142
f 143 145 146 144
f 145 147 148 146
f 147 109 110 148
f 149 111 109
f 150 110 112
f 149 113 111
f 150 112 114
f 149 115 113
f 150 114 116
f 149 117 115
f 150 116 118
f 149 119 117
f 150 118 120
f 149 121 119
f 150 120 122
f 149 123 121
f 150 122 124
f 149 125 123
f 150 124 126
f 149 127 125
f 150 126 128
f 149 129 127
f 150 128 130
f 149 131 129
f 150 130 132
f 149 133 131
f 150 132 134
f 149 135 133
f 150 134 136
f 149 137 135
f 150 136 138
f 149 139 137
f 150 138 140
f 149 141 139
f 150 140 142
f 149 143 141
f 150 142 144
f 149 145 143
f 150 144 146
f 149 147 145
f 150 146 148
f 149 109 147
f 150 148 110
v 0.31500 0.20400 0.16700
v 0.31500 0.21600 0.16700
v 0.31182 0.20400 0.18709
v 0.31182 0.21600 0.18709
v 0.30259 0.20400 0.20521
v 0.30259 0.21600 0.20521
v 0.28821 0.20400 0.21959
v 0.28821 0.21600 0.21959
v 0.27009 0.20400 0.22882
v 0.27009 0.21600 0.22882
v 0.25000 0.20400 0.23200
v 0.25000 0.21600 0.23200
v 0.22991 0.20400 0.22882
v 0.22991 0.21600 0.22882
v 0.21179 0.20400 0.21959
v 0.21179 0.21600 0.21959
v 0.19741 0.20400 0.20521
v 0.19741 0.21600 0.20521
v 0.18818 0.20400 0.18709
v 0.18818 0.21600 0.18709
v 0.18500 0.20400 0.16700
v 0.18500 0.21600 0.16700
v 0.18818 0.20400 0.14691
v 0.18818 0.21600 0.14691
v 0.19741 0.20400 0.12879
v 0.19741 0.21600 0.12879
v 0.21179 0.20400 0.11441
v 0.21179 0.21600 0.11441
v 0.22991 0.20400 0.10518
v 0.22991 0.21600 0.10518
v 0.25000 0.20400 0.10200
v 0.25000 0.21600 0.10200
v 0.27009 0.20400 0.10518
v 0.27009 0.21600 0.10518
v 0.28821 0.20400 0.11441
v 0.28821 0.21600 0.11441
v 0.30259 0.20400 0.12879
v 0.30259 0.21600 0.12879
v 0.31182 0.20400 0.14691
v 0.31182 0.21600 0.14691
v 0.25000 0.20400 0.16700
v 0.25000 0.21600 0.16700
usemtl plastico_oscuro
f 151 153 154 152
f 153 155 156 154
f 155 157 158 156
f 157 159 160 158
f 159 161 162 160
f 161 163 164 162
f 163 165 166 164
f 165 167 168 166
f 167 169 170 168
f 169 171 172 170
f 171 173 174 172
f 173 175 176 174
f 175 177 178 176
f 177 179 180 178
f 179 181 182 180
f 181 183 184 182
f 183 185 186 184
f 185 187 188 186
f 187 189 190 188
f 189 151 152 190
f 191 153 151
f 192 152 154
f 191 155 153
f 192 154 156
f 191 157 155
f 192 156 158
f 191 159 157
f 192 158 160
f 191 161 159
f 192 160 162
f 191 163 161
f 192 162 164
f 191 165 163
f 192 164 166
f 191 167 165
f 192 166 168
f 191 169 167
f 192 168 170
f 191 171 169
f 192 170 172
f 191 173 171
f 192 172 174
f 191 175 173
f 192 174 176
f 191 177 175
f 192 176 178
f 191 179 177
f 192 178 180
f 191 181 179
f 192 180 182
f 191 183 181
f 192 182 184
f 191 185 183
f 192 184 186
f 191 187 185
f 192 186 188
f 191 189 187
f 192 188 190
f 191 151 189
f 192 190 152
v -0.08400 0.32200 0.15800
v -0.08400 0.34800 0.15800
v -0.08598 0.32200 0.16795
v -0.08598 0.34800 0.16795
v -0.09162 0.32200 0.17638
v -0.09162 0.34800 0.17638
v -0.10005 0.32200 0.18202
v -0.10005 0.34800 0.18202
v -0.11000 0.32200 0.18400
v -0.11000 0.34800 0.18400
v -0.11995 0.32200 0.18202
v -0.11995 0.34800 0.18202
v -0.12838 0.32200 0.17638
v -0.12838 0.34800 0.17638
v -0.13402 0.32200 0.16795
v -0.13402 0.34800 0.16795
v -0.13600 0.32200 0.15800
v -0.13600 0.34800 0.15800
v -0.13402 0.32200 0.14805
v -0.13402 0.34800 0.14805
v -0.12838 0.32200 0.13962
v -0.12838 0.34800 0.13962
v -0.11995 0.32200 0.13398
v -0.11995 0.34800 0.13398
v -0.11000 0.32200 0.13200
v -0.11000 0.34800 0.13200
v -0.10005 0.32200 0.13398
v -0.10005 0.34800 0.13398
v -0.09162 0.32200 0.13962
v -0.09162 0.34800 0.13962
v -0.08598 0.32200 0.14805
v -0.08598 0.34800 0.14805
v -0.11000 0.32200 0.15800
v -0.11000 0.34800 0.15800
usemtl metal_mate
f 193 195 196 194
f 195 197 198 196
f 197 199 200 198
f 199 201 202 200
f 201 203 204 202
f 203 205 206 204
f 205 207 208 206
f 207 209 210 208
f 209 211 212 210
f 211 213 214 212
f 213 215 216 214
f 215 217 218 216
f 217 219 220 218
f 219 221 222 220
f 221 223 224 222
f 223 193 194 224
f 225 195 193
f 226 194 196
f 225 197 195
f 226 196 198
f 225 199 197
f 226 198 200
f 225 201 199
f 226 200 202
f 225 203 201
f 226 202 204
f 225 205 203
f 226 204 206
f 225 207 205
f 226 206 208
f 225 209 207
f 226 208 210
f 225 211 209
f 226 210 212
f 225 213 211
f 226 212 214
f 225 215 213
f 226 214 216
f 225 217 215
f 226 216 218
f 225 219 217
f 226 218 220
f 225 221 219
f 226 220 222
f 225 223 221
f 226 222 224
f 225 193 223
f 226 224 194
v 0.02600 0.32200 0.15800
v 0.02600 0.34800 0.15800
v 0.02402 0.32200 0.16795
v 0.02402 0.34800 0.16795
v 0.01838 0.32200 0.17638
v 0.01838 0.34800 0.17638
v 0.00995 0.32200 0.18202
v 0.00995 0.34800 0.18202
v 0.00000 0.32200 0.18400
v 0.00000 0.34800 0.18400
v -0.00995 0.32200 0.18202
v -0.00995 0.34800 0.18202
v -0.01838 0.32200 0.17638
v -0.01838 0.34800 0.17638
v -0.02402 0.32200 0.16795
v -0.02402 0.34800 0.16795
v -0.02600 0.32200 0.15800
v -0.02600 0.34800 0.15800
v -0.02402 0.32200 0.14805
v -0.02402 0.34800 0.14805
v -0.01838 0.32200 0.13962
v -0.01838 0.34800 0.13962
v -0.00995 0.32200 0.13398
v -0.00995 0.34800 0.13398
v -0.00000 0.32200 0.13200
v -0.00000 0.34800 0.13200
v 0.00995 0.32200 0.13398
v 0.00995 0.34800 0.13398
v 0.01838 0.32200 0.13962
v 0.01838 0.34800 0.13962
v 0.02402 0.32200 0.14805
v 0.02402 0.34800 0.14805
v 0.00000 0.32200 0.15800
v 0.00000 0.34800 0.15800
usemtl metal_mate
f 227 229 230 228
f 229 231 232 230
f 231 233 234 232
f 233 235 236 234
f 235 237 238 236
f 237 239 240 238
f 239 241 242 240
f 241 243 244 242
f 243 245 246 244
f 245 247 248 246
f 247 249 250 248
f 249 251 252 250
f 251 253 254 252
f 253 255 256 254
f 255 257 258 256
f 257 227 228 258
f 259 229 227
f 260 228 230
f 259 231 229
f 260 230 232
f 259 233 231
f 260 232 234
f 259 235 233
f 260 234 236
f 259 237 235
f 260 236 238
f 259 239 237
f 260 238 240
f 259 241 239
f 260 240 242
f 259 243 241
f 260 242 244
f 259 245 243
f 260 244 246
f 259 247 245
f 260 246 248
f 259 249 247
f 260 248 250
f 259 251 249
f 260 250 252
f 259 253 251
f 260 252 254
f 259 255 253
f 260 254 256
f 259 257 255
f 260 256 258
f 259 227 257
f 260 258 228
v 0.13600 0.32200 0.15800
v 0.13600 0.34800 0.15800
v 0.13402 0.32200 0.16795
v 0.13402 0.34800 0.16795
v 0.12838 0.32200 0.17638
v 0.12838 0.34800 0.17638
v 0.11995 0.32200 0.18202
v 0.11995 0.34800 0.18202
v 0.11000 0.32200 0.18400
v 0.11000 0.34800 0.18400
v 0.10005 0.32200 0.18202
v 0.10005 0.34800 0.18202
v 0.09162 0.32200 0.17638
v 0.09162 0.34800 0.17638
v 0.08598 0.32200 0.16795
v 0.08598 0.34800 0.16795
v 0.08400 0.32200 0.15800
v 0.08400 0.34800 0.15800
v 0.08598 0.32200 0.14805
v 0.08598 0.34800 0.14805
v 0.09162 0.32200 0.13962
v 0.09162 0.34800 0.13962
v 0.10005 0.32200 0.13398
v 0.10005 0.34800 0.13398
v 0.11000 0.32200 0.13200
v 0.11000 0.34800 0.13200
v 0.11995 0.32200 0.13398
v 0.11995 0.34800 0.13398
v 0.12838 0.32200 0.13962
v 0.12838 0.34800 0.13962
v 0.13402 0.32200 0.14805
v 0.13402 0.34800 0.14805
v 0.11000 0.32200 0.15800
v 0.11000 0.34800 0.15800
usemtl metal_mate
f 261 263 264 262
f 263 265 266 264
f 265 267 268 266
f 267 269 270 268
f 269 271 272 270
f 271 273 274 272
f 273 275 276 274
f 275 277 278 276
f 277 279 280 278
f 279 281 282 280
f 281 283 284 282
f 283 285 286 284
f 285 287 288 286
f 287 289 290 288
f 289 291 292 290
f 291 261 262 292
f 293 263 261
f 294 262 264
f 293 265 263
f 294 264 266
f 293 267 265
f 294 266 268
f 293 269 267
f 294 268 270
f 293 271 269
f 294 270 272
f 293 273 271
f 294 272 274
f 293 275 273
f 294 274 276
f 293 277 275
f 294 276 278
f 293 279 277
f 294 278 280
f 293 281 279
f 294 280 282
f 293 283 281
f 294 282 284
f 293 285 283
f 294 284 286
f 293 287 285
f 294 286 288
f 293 289 287
f 294 288 290
f 293 291 289
f 294 290 292
f 293 261 291
f 294 292 262
v -0.33250 0.32250 0.14800
v -0.28750 0.32250 0.14800
v -0.28750 0.34750 0.14800
v -0.33250 0.34750 0.14800
v -0.33250 0.32250 0.16600
v -0.28750 0.32250 0.16600
v -0.28750 0.34750 0.16600
v -0.33250 0.34750 0.16600
usemtl boton_rojo
f 295 296 297 298
f 300 299 302 301
f 299 295 298 302
f 296 300 301 297
f 298 297 301 302
f 299 300 296 295
v 0.28750 0.32250 0.14800
v 0.33250 0.32250 0.14800
v 0.33250 0.34750 0.14800
v 0.28750 0.34750 0.14800
v 0.28750 0.32250 0.16600
v 0.33250 0.32250 0.16600
v 0.33250 0.34750 0.16600
v 0.28750 0.34750 0.16600
usemtl plastico_beige
f 303 304 305 306
f 308 307 310 309
f 307 303 306 310
f 304 308 309 305
f 306 305 309 310
f 307 308 304 303
