# Original asset for Expediente Legado — no trademarks/logos
mtllib props_originales_98.mtl
o telefono_auricular_98
v -0.18000 -0.03750 -0.04250
v 0.18000 -0.03750 -0.04250
v 0.18000 0.03750 -0.04250
v -0.18000 0.03750 -0.04250
v -0.18000 -0.03750 0.04250
v 0.18000 -0.03750 0.04250
v 0.18000 0.03750 0.04250
v -0.18000 0.03750 0.04250
usemtl plastico_oscuro
f 1 2 3 4
f 6 5 8 7
f 5 1 4 8
f 2 6 7 3
f 4 3 7 8
f 5 6 2 1
v -0.27000 -0.05500 -0.07000
v -0.15000 -0.05500 -0.07000
v -0.15000 0.05500 -0.07000
v -0.27000 0.05500 -0.07000
v -0.27000 -0.05500 0.07000
v -0.15000 -0.05500 0.07000
v -0.15000 0.05500 0.07000
v -0.27000 0.05500 0.07000
usemtl plastico_oscuro
f 9 10 11 12
f 14 13 16 15
f 13 9 12 16
f 10 14 15 11
f 12 11 15 16
f 13 14 10 9
v 0.15000 -0.05500 -0.07000
v 0.27000 -0.05500 -0.07000
v 0.27000 0.05500 -0.07000
v 0.15000 0.05500 -0.07000
v 0.15000 -0.05500 0.07000
v 0.27000 -0.05500 0.07000
v 0.27000 0.05500 0.07000
v 0.15000 0.05500 0.07000
usemtl plastico_oscuro
f 17 18 19 20
f 22 21 24 23
f 21 17 20 24
f 18 22 23 19
f 20 19 23 24
f 21 22 18 17
v -0.16800 -0.06750 0.00000
v -0.16800 -0.05250 0.00000
v -0.17363 -0.06750 0.02100
v -0.17363 -0.05250 0.02100
v -0.18900 -0.06750 0.03637
v -0.18900 -0.05250 0.03637
v -0.21000 -0.06750 0.04200
v -0.21000 -0.05250 0.04200
v -0.23100 -0.06750 0.03637
v -0.23100 -0.05250 0.03637
v -0.24637 -0.06750 0.02100
v -0.24637 -0.05250 0.02100
v -0.25200 -0.06750 0.00000
v -0.25200 -0.05250 0.00000
v -0.24637 -0.06750 -0.02100
v -0.24637 -0.05250 -0.02100
v -0.23100 -0.06750 -0.03637
v -0.23100 -0.05250 -0.03637
v -0.21000 -0.06750 -0.04200
v -0.21000 -0.05250 -0.04200
v -0.18900 -0.06750 -0.03637
v -0.18900 -0.05250 -0.03637
v -0.17363 -0.06750 -0.02100
v -0.17363 -0.05250 -0.02100
v -0.21000 -0.06750 0.00000
v -0.21000 -0.05250 0.00000
usemtl goma
f 25 27 28 26
f 27 29 30 28
f 29 31 32 30
f 31 33 34 32
f 33 35 36 34
f 35 37 38 36
f 37 39 40 38
f 39 41 42 40
f 41 43 44 42
f 43 45 46 44
f 45 47 48 46
f 47 25 26 48
f 49 27 25
f 50 26 28
f 49 29 27
f 50 28 30
f 49 31 29
f 50 30 32
f 49 33 31
f 50 32 34
f 49 35 33
f 50 34 36
f 49 37 35
f 50 36 38
f 49 39 37
f 50 38 40
f 49 41 39
f 50 40 42
f 49 43 41
f 50 42 44
f 49 45 43
f 50 44 46
f 49 47 45
f 50 46 48
f 49 25 47
f 50 48 26
v 0.25200 -0.06750 0.00000
v 0.25200 -0.05250 0.00000
v 0.24637 -0.06750 0.02100
v 0.24637 -0.05250 0.02100
v 0.23100 -0.06750 0.03637
v 0.23100 -0.05250 0.03637
v 0.21000 -0.06750 0.04200
v 0.21000 -0.05250 0.04200
v 0.18900 -0.06750 0.03637
v 0.18900 -0.05250 0.03637
v 0.17363 -0.06750 0.02100
v 0.17363 -0.05250 0.02100
v 0.16800 -0.06750 0.00000
v 0.16800 -0.05250 0.00000
v 0.17363 -0.06750 -0.02100
v 0.17363 -0.05250 -0.02100
v 0.18900 -0.06750 -0.03637
v 0.18900 -0.05250 -0.03637
v 0.21000 -0.06750 -0.04200
v 0.21000 -0.05250 -0.04200
v 0.23100 -0.06750 -0.03637
v 0.23100 -0.05250 -0.03637
v 0.24637 -0.06750 -0.02100
v 0.24637 -0.05250 -0.02100
v 0.21000 -0.06750 0.00000
v 0.21000 -0.05250 0.00000
usemtl goma
f 51 53 54 52
f 53 55 56 54
f 55 57 58 56
f 57 59 60 58
f 59 61 62 60
f 61 63 64 62
f 63 65 66 64
f 65 67 68 66
f 67 69 70 68
f 69 71 72 70
f 71 73 74 72
f 73 51 52 74
f 75 53 51
f 76 52 54
f 75 55 53
f 76 54 56
f 75 57 55
f 76 56 58
f 75 59 57
f 76 58 60
f 75 61 59
f 76 60 62
f 75 63 61
f 76 62 64
f 75 65 63
f 76 64 66
f 75 67 65
f 76 66 68
f 75 69 67
f 76 68 70
f 75 71 69
f 76 70 72
f 75 73 71
f 76 72 74
f 75 51 73
f 76 74 52
