# Pareja de piedras de eco abstractas para #655
mtllib popol_wuj.mtl
s off
o piedra_a
usemtl piedra_oscura
v -1.60 0.00 -0.70
v -0.30 0.00 -0.62
v -0.20 1.30 -0.48
v -1.45 1.52 -0.58
v -1.60 0.00 0.70
v -0.30 0.00 0.62
v -0.20 1.30 0.48
v -1.45 1.52 0.58
f 1 2 3 4
f 5 8 7 6
f 1 5 6 2
f 2 6 7 3
f 3 7 8 4
f 5 1 4 8

o muesca_a
usemtl piedra_humeda
v -1.02 0.55 -0.76
v -0.62 0.55 -0.72
v -0.62 0.92 -0.66
v -1.02 0.92 -0.70
v -1.02 0.55 -0.58
v -0.62 0.55 -0.56
v -0.62 0.92 -0.50
v -1.02 0.92 -0.52
f 9 10 11 12
f 13 16 15 14
f 9 13 14 10
f 10 14 15 11
f 11 15 16 12
f 13 9 12 16

o piedra_b
usemtl piedra_calida
v 0.30 0.00 -0.62
v 1.60 0.00 -0.70
v 1.45 1.52 -0.58
v 0.20 1.30 -0.48
v 0.30 0.00 0.62
v 1.60 0.00 0.70
v 1.45 1.52 0.58
v 0.20 1.30 0.48
f 17 18 19 20
f 21 24 23 22
f 17 21 22 18
f 18 22 23 19
f 19 23 24 20
f 21 17 20 24

o muesca_b
usemtl piedra_humeda
v 0.62 0.72 -0.72
v 1.02 0.72 -0.76
v 1.02 1.09 -0.70
v 0.62 1.09 -0.66
v 0.62 0.72 -0.56
v 1.02 0.72 -0.58
v 1.02 1.09 -0.52
v 0.62 1.09 -0.50
f 25 26 27 28
f 29 32 31 30
f 25 29 30 26
f 26 30 31 27
f 27 31 32 28
f 29 25 28 32
