<svg xmlns="http://www.w3.org/2000/svg" width="96" height="120" viewBox="0 0 96 120" shape-rendering="crispEdges">
<title>Ficha de la Circular 0/98 como sujeto documental; hoja con un sello anterior a su propia fecha, representación no biográfica</title>
<rect width="96" height="120" fill="#e9e5d8"/>
<rect x="4" y="4" width="88" height="112" fill="#fffdf4" stroke="#353535" stroke-width="2"/>
<path d="M10 16h76M10 98h76" stroke="#3F6F73" stroke-width="3"/>
<rect x="12" y="21" width="44" height="58" fill="#ded9ca" stroke="#353535" stroke-width="2"/>
<rect x="18" y="27" width="32" height="46" fill="#fffdf4" stroke="#67645f" stroke-width="2"/>
<path d="M22 35h24M22 42h24M22 49h16" stroke="#67645f" stroke-width="2"/>
<path d="M21 60h26" stroke="#353535" stroke-width="2"/>
<path d="M21 64l26-8" stroke="#3F6F73" stroke-width="2"/>
<circle cx="44" cy="31" r="9" fill="none" stroke="#3F6F73" stroke-width="2" stroke-dasharray="3 2"/>
<path d="M64 27h18M64 36h14" stroke="#353535" stroke-width="2"/>
<rect x="61" y="54" width="10" height="10" fill="#3F6F73"/>
<rect x="73" y="54" width="10" height="10" fill="none" stroke="#3F6F73" stroke-width="2" stroke-dasharray="2 2"/>
<rect x="61" y="66" width="10" height="10" fill="none" stroke="#353535" stroke-width="2"/>
<rect x="73" y="66" width="10" height="10" fill="#3F6F73"/>
<path d="M15 88h46M15 94h20" stroke="#353535" stroke-width="2" stroke-dasharray="4 2"/>
<path d="M82 90H66M70 86l-4 4 4 4" fill="none" stroke="#3F6F73" stroke-width="2"/>
</svg>
