# Original project derivative for EspacioKoop/expediente-legado #947
# Extracted from the project-authored #284 gate: wall + voussoir arch only.
# Towers, roofs, arrow slits and buttresses are intentionally omitted.
o ArcadaClaustroPSX
v -3.25000 0.00000 -0.48000
v -1.55000 0.00000 -0.48000
v -1.55000 4.15000 -0.48000
v -3.25000 4.15000 -0.48000
v -3.25000 0.00000 0.48000
v -1.55000 0.00000 0.48000
v -1.55000 4.15000 0.48000
v -3.25000 4.15000 0.48000
v 1.55000 0.00000 -0.48000
v 3.25000 0.00000 -0.48000
v 3.25000 4.15000 -0.48000
v 1.55000 4.15000 -0.48000
v 1.55000 0.00000 0.48000
v 3.25000 0.00000 0.48000
v 3.25000 4.15000 0.48000
v 1.55000 4.15000 0.48000
v -1.55000 3.40000 -0.48000
v 1.55000 3.40000 -0.48000
v 1.55000 4.15000 -0.48000
v -1.55000 4.15000 -0.48000
v -1.55000 3.40000 0.48000
v 1.55000 3.40000 0.48000
v 1.55000 4.15000 0.48000
v -1.55000 4.15000 0.48000
v 1.28000 2.00000 -0.52000
v 1.72000 2.00000 -0.52000
v 1.65033 2.48458 -0.52000
v 1.22815 2.36062 -0.52000
v 1.28000 2.00000 0.52000
v 1.72000 2.00000 0.52000
v 1.65033 2.48458 0.52000
v 1.22815 2.36062 0.52000
v 1.22815 2.36062 -0.52000
v 1.65033 2.48458 -0.52000
v 1.44696 2.92990 -0.52000
v 1.07680 2.69202 -0.52000
v 1.22815 2.36062 0.52000
v 1.65033 2.48458 0.52000
v 1.44696 2.92990 0.52000
v 1.07680 2.69202 0.52000
v 1.07680 2.69202 -0.52000
v 1.44696 2.92990 -0.52000
v 1.12636 3.29989 -0.52000
v 0.83822 2.96736 -0.52000
v 1.07680 2.69202 0.52000
v 1.44696 2.92990 0.52000
v 1.12636 3.29989 0.52000
v 0.83822 2.96736 0.52000
v 0.83822 2.96736 -0.52000
v 1.12636 3.29989 -0.52000
v 0.71451 3.56457 -0.52000
v 0.53173 3.16433 -0.52000
v 0.83822 2.96736 0.52000
v 1.12636 3.29989 0.52000
v 0.71451 3.56457 0.52000
v 0.53173 3.16433 0.52000
v 0.53173 3.16433 -0.52000
v 0.71451 3.56457 -0.52000
v 0.24478 3.70249 -0.52000
v 0.18216 3.26697 -0.52000
v 0.53173 3.16433 0.52000
v 0.71451 3.56457 0.52000
v 0.24478 3.70249 0.52000
v 0.18216 3.26697 0.52000
v 0.18216 3.26697 -0.52000
v 0.24478 3.70249 -0.52000
v -0.24478 3.70249 -0.52000
v -0.18216 3.26697 -0.52000
v 0.18216 3.26697 0.52000
v 0.24478 3.70249 0.52000
v -0.24478 3.70249 0.52000
v -0.18216 3.26697 0.52000
v -0.18216 3.26697 -0.52000
v -0.24478 3.70249 -0.52000
v -0.71451 3.56457 -0.52000
v -0.53173 3.16433 -0.52000
v -0.18216 3.26697 0.52000
v -0.24478 3.70249 0.52000
v -0.71451 3.56457 0.52000
v -0.53173 3.16433 0.52000
v -0.53173 3.16433 -0.52000
v -0.71451 3.56457 -0.52000
v -1.12636 3.29989 -0.52000
v -0.83822 2.96736 -0.52000
v -0.53173 3.16433 0.52000
v -0.71451 3.56457 0.52000
v -1.12636 3.29989 0.52000
v -0.83822 2.96736 0.52000
v -0.83822 2.96736 -0.52000
v -1.12636 3.29989 -0.52000
v -1.44696 2.92990 -0.52000
v -1.07680 2.69202 -0.52000
v -0.83822 2.96736 0.52000
v -1.12636 3.29989 0.52000
v -1.44696 2.92990 0.52000
v -1.07680 2.69202 0.52000
v -1.07680 2.69202 -0.52000
v -1.44696 2.92990 -0.52000
v -1.65033 2.48458 -0.52000
v -1.22815 2.36062 -0.52000
v -1.07680 2.69202 0.52000
v -1.44696 2.92990 0.52000
v -1.65033 2.48458 0.52000
v -1.22815 2.36062 0.52000
v -1.22815 2.36062 -0.52000
v -1.65033 2.48458 -0.52000
v -1.72000 2.00000 -0.52000
v -1.28000 2.00000 -0.52000
v -1.22815 2.36062 0.52000
v -1.65033 2.48458 0.52000
v -1.72000 2.00000 0.52000
v -1.28000 2.00000 0.52000
g WallLeft
f 5 6 7 8
f 2 1 4 3
f 1 5 8 4
f 6 2 3 7
f 4 8 7 3
f 1 2 6 5
g WallRight
f 13 14 15 16
f 10 9 12 11
f 9 13 16 12
f 14 10 11 15
f 12 16 15 11
f 9 10 14 13
g WallCrown
f 21 22 23 24
f 18 17 20 19
f 17 21 24 20
f 22 18 19 23
f 20 24 23 19
f 17 18 22 21
g Arch_00
f 29 30 31 32
f 26 25 28 27
f 25 29 32 28
f 30 26 27 31
f 28 32 31 27
f 25 26 30 29
g Arch_01
f 37 38 39 40
f 34 33 36 35
f 33 37 40 36
f 38 34 35 39
f 36 40 39 35
f 33 34 38 37
g Arch_02
f 45 46 47 48
f 42 41 44 43
f 41 45 48 44
f 46 42 43 47
f 44 48 47 43
f 41 42 46 45
g Arch_03
f 53 54 55 56
f 50 49 52 51
f 49 53 56 52
f 54 50 51 55
f 52 56 55 51
f 49 50 54 53
g Arch_04
f 61 62 63 64
f 58 57 60 59
f 57 61 64 60
f 62 58 59 63
f 60 64 63 59
f 57 58 62 61
g Arch_05
f 69 70 71 72
f 66 65 68 67
f 65 69 72 68
f 70 66 67 71
f 68 72 71 67
f 65 66 70 69
g Arch_06
f 77 78 79 80
f 74 73 76 75
f 73 77 80 76
f 78 74 75 79
f 76 80 79 75
f 73 74 78 77
g Arch_07
f 85 86 87 88
f 82 81 84 83
f 81 85 88 84
f 86 82 83 87
f 84 88 87 83
f 81 82 86 85
g Arch_08
f 93 94 95 96
f 90 89 92 91
f 89 93 96 92
f 94 90 91 95
f 92 96 95 91
f 89 90 94 93
g Arch_09
f 101 102 103 104
f 98 97 100 99
f 97 101 104 100
f 102 98 99 103
f 100 104 103 99
f 97 98 102 101
g Arch_10
f 109 110 111 112
f 106 105 108 107
f 105 109 112 108
f 110 106 107 111
f 108 112 111 107
f 105 106 110 109
