o ArchivadorDesiertoPSX
g part_0
v -0.4300 0.0000 -0.3600
v 0.4300 0.0000 -0.3600
v 0.4300 2.1000 -0.3600
v -0.4300 2.1000 -0.3600
v -0.4300 0.0000 0.3600
v 0.4300 0.0000 0.3600
v 0.4300 2.1000 0.3600
v -0.4300 2.1000 0.3600
f 1 2 3 4
f 5 8 7 6
f 1 5 6 2
f 2 6 7 3
f 3 7 8 4
f 5 1 4 8
g part_1
v -0.3800 1.5750 0.3500
v 0.3800 1.5750 0.3500
v 0.3800 1.9250 0.3500
v -0.3800 1.9250 0.3500
v -0.3800 1.5750 0.4300
v 0.3800 1.5750 0.4300
v 0.3800 1.9250 0.4300
v -0.3800 1.9250 0.4300
f 9 10 11 12
f 13 16 15 14
f 9 13 14 10
f 10 14 15 11
f 11 15 16 12
f 13 9 12 16
g part_2
v -0.3800 1.1250 0.3500
v 0.3800 1.1250 0.3500
v 0.3800 1.4750 0.3500
v -0.3800 1.4750 0.3500
v -0.3800 1.1250 0.4300
v 0.3800 1.1250 0.4300
v 0.3800 1.4750 0.4300
v -0.3800 1.4750 0.4300
f 17 18 19 20
f 21 24 23 22
f 17 21 22 18
f 18 22 23 19
f 19 23 24 20
f 21 17 20 24
g part_3
v -0.3800 0.6750 0.3500
v 0.3800 0.6750 0.3500
v 0.3800 1.0250 0.3500
v -0.3800 1.0250 0.3500
v -0.3800 0.6750 0.4300
v 0.3800 0.6750 0.4300
v 0.3800 1.0250 0.4300
v -0.3800 1.0250 0.4300
f 25 26 27 28
f 29 32 31 30
f 25 29 30 26
f 26 30 31 27
f 27 31 32 28
f 29 25 28 32
g part_4
v -0.3800 0.2250 0.3500
v 0.3800 0.2250 0.3500
v 0.3800 0.5750 0.3500
v -0.3800 0.5750 0.3500
v -0.3800 0.2250 0.4300
v 0.3800 0.2250 0.4300
v 0.3800 0.5750 0.4300
v -0.3800 0.5750 0.4300
f 33 34 35 36
f 37 40 39 38
f 33 37 38 34
f 34 38 39 35
f 35 39 40 36
f 37 33 36 40
