# Original project asset for EspacioKoop/expediente-legado #284
# Low-poly mountain cabin with irregular footprint, pitched roof and porch.
o CabanaNievePSX
v -2.7000 0.0000 -1.8000
v -2.3500 0.0000 -2.2000
v 2.2500 0.0000 -2.2000
v 2.7000 0.0000 -1.7500
v 2.6500 0.0000 1.8500
v 2.2000 0.0000 2.2000
v -2.2500 0.0000 2.2000
v -2.7500 0.0000 1.7500
v -2.7000 2.6500 -1.8000
v -2.3500 2.6500 -2.2000
v 2.2500 2.6500 -2.2000
v 2.7000 2.6500 -1.7500
v 2.6500 2.6500 1.8500
v 2.2000 2.6500 2.2000
v -2.2500 2.6500 2.2000
v -2.7500 2.6500 1.7500
v 0.0000 0.0000 0.0000
v 0.0000 2.6500 0.0000
v -2.9500 2.5500 -2.4500
v -2.9500 2.5500 2.4500
v 2.9500 2.5500 -2.4500
v 2.9500 2.5500 2.4500
v 0.0000 4.0500 -2.4500
v 0.0000 4.0500 2.4500
v 1.2900 3.0000 -1.0100
v 1.9100 3.0000 -1.0100
v 1.9100 5.2000 -1.0100
v 1.2900 5.2000 -1.0100
v 1.2900 3.0000 -0.3900
v 1.9100 3.0000 -0.3900
v 1.9100 5.2000 -0.3900
v 1.2900 5.2000 -0.3900
v -2.3000 0.0000 1.9500
v 2.3000 0.0000 1.9500
v 2.3000 0.2400 1.9500
v -2.3000 0.2400 1.9500
v -2.3000 0.0000 3.1500
v 2.3000 0.0000 3.1500
v 2.3000 0.2400 3.1500
v -2.3000 0.2400 3.1500
f 1 2 10 9
f 2 3 11 10
f 3 4 12 11
f 4 5 13 12
f 5 6 14 13
f 6 7 15 14
f 7 8 16 15
f 8 1 9 16
f 17 2 1
f 18 9 10
f 17 3 2
f 18 10 11
f 17 4 3
f 18 11 12
f 17 5 4
f 18 12 13
f 17 6 5
f 18 13 14
f 17 7 6
f 18 14 15
f 17 8 7
f 18 15 16
f 17 1 8
f 18 16 9
f 19 23 24 20
f 23 21 22 24
f 19 21 23
f 20 24 22
f 25 26 27 28
f 29 32 31 30
f 25 29 30 26
f 26 30 31 27
f 27 31 32 28
f 28 32 29 25
f 33 34 35 36
f 37 40 39 38
f 33 37 38 34
f 34 38 39 35
f 35 39 40 36
f 36 40 37 33
