o CabinaTelefonoDesiertoPSX
g part_0
v -0.7350 0.0000 0.4250
v -0.6250 0.0000 0.4250
v -0.6250 2.5000 0.4250
v -0.7350 2.5000 0.4250
v -0.7350 0.0000 0.5350
v -0.6250 0.0000 0.5350
v -0.6250 2.5000 0.5350
v -0.7350 2.5000 0.5350
f 1 2 3 4
f 5 8 7 6
f 1 5 6 2
f 2 6 7 3
f 3 7 8 4
f 5 1 4 8
g part_1
v 0.6250 0.0000 0.4250
v 0.7350 0.0000 0.4250
v 0.7350 2.5000 0.4250
v 0.6250 2.5000 0.4250
v 0.6250 0.0000 0.5350
v 0.7350 0.0000 0.5350
v 0.7350 2.5000 0.5350
v 0.6250 2.5000 0.5350
f 9 10 11 12
f 13 16 15 14
f 9 13 14 10
f 10 14 15 11
f 11 15 16 12
f 13 9 12 16
g part_2
v -0.7350 0.0000 -0.5350
v -0.6250 0.0000 -0.5350
v -0.6250 2.5000 -0.5350
v -0.7350 2.5000 -0.5350
v -0.7350 0.0000 -0.4250
v -0.6250 0.0000 -0.4250
v -0.6250 2.5000 -0.4250
v -0.7350 2.5000 -0.4250
f 17 18 19 20
f 21 24 23 22
f 17 21 22 18
f 18 22 23 19
f 19 23 24 20
f 21 17 20 24
g part_3
v 0.6250 0.0000 -0.5350
v 0.7350 0.0000 -0.5350
v 0.7350 2.5000 -0.5350
v 0.6250 2.5000 -0.5350
v 0.6250 0.0000 -0.4250
v 0.7350 0.0000 -0.4250
v 0.7350 2.5000 -0.4250
v 0.6250 2.5000 -0.4250
f 25 26 27 28
f 29 32 31 30
f 25 29 30 26
f 26 30 31 27
f 27 31 32 28
f 29 25 28 32
g part_4
v -0.2800 0.7600 -0.5400
v 0.2800 0.7600 -0.5400
v 0.2800 1.5400 -0.5400
v -0.2800 1.5400 -0.5400
v -0.2800 0.7600 -0.3400
v 0.2800 0.7600 -0.3400
v 0.2800 1.5400 -0.3400
v -0.2800 1.5400 -0.3400
f 33 34 35 36
f 37 40 39 38
f 33 37 38 34
f 34 38 39 35
f 35 39 40 36
f 37 33 36 40
g part_5
v -0.7250 0.0900 -0.5400
v 0.7250 0.0900 -0.5400
v 0.7250 0.2100 -0.5400
v -0.7250 0.2100 -0.5400
v -0.7250 0.0900 0.5400
v 0.7250 0.0900 0.5400
v 0.7250 0.2100 0.5400
v -0.7250 0.2100 0.5400
f 41 42 43 44
f 45 48 47 46
f 41 45 46 42
f 42 46 47 43
f 43 47 48 44
f 45 41 44 48
g roof
v -0.8200 2.4800 -0.6300
v 0.8200 2.4800 -0.6300
v 0.8200 2.4800 0.6300
v -0.8200 2.4800 0.6300
v 0.0000 2.8400 -0.6300
v 0.0000 2.8400 0.6300
f 49 50 53
f 52 54 51
f 49 53 54 52
f 50 51 54 53
f 49 52 51 50
