# Original project asset for EspacioKoop/expediente-legado #284
# Custom annular medieval stair. Steps rise and then descend while continuing around the same core.
# Text OBJ, no engine BoxMesh staircase.
o EscaleraAnularPSX
v 1.13881 0.00000 -0.16005
v 2.52518 0.00000 -0.35489
v 2.53099 0.00000 0.31077
v 1.14143 0.00000 0.14015
v 1.13881 0.20000 -0.16005
v 2.52518 0.20000 -0.35489
v 2.53099 0.20000 0.31077
v 1.14143 0.20000 0.14015
v 1.12887 0.24000 0.21943
v 2.50315 0.24000 0.48656
v 2.29192 0.24000 1.11785
v 1.03361 0.24000 0.50413
v 1.12887 0.44000 0.21943
v 2.50315 0.44000 0.48656
v 2.29192 0.44000 1.11785
v 1.03361 0.44000 0.50413
v 0.99593 0.48000 0.57500
v 2.20836 0.48000 1.27500
v 1.80312 0.48000 1.80312
v 0.81317 0.48000 0.81317
v 0.99593 0.68000 0.57500
v 2.20836 0.68000 1.27500
v 1.80312 0.68000 1.80312
v 0.81317 0.68000 0.81317
v 0.75447 0.72000 0.86792
v 1.67295 0.72000 1.92451
v 1.11785 0.72000 2.29192
v 0.50413 0.72000 1.03361
v 0.75447 0.92000 0.86792
v 1.67295 0.92000 1.92451
v 1.11785 0.92000 2.29192
v 0.50413 0.92000 1.03361
v 0.43080 0.96000 1.06626
v 0.95525 0.96000 2.36432
v 0.31077 0.96000 2.53099
v 0.14015 0.96000 1.14143
v 0.43080 1.16000 1.06626
v 0.95525 1.16000 2.36432
v 0.31077 1.16000 2.53099
v 0.14015 1.16000 1.14143
v 0.06019 1.20000 1.14842
v 0.13346 1.20000 2.54651
v -0.53017 1.20000 2.49428
v -0.23910 1.20000 1.12487
v 0.06019 1.40000 1.14842
v 0.13346 1.40000 2.54651
v -0.53017 1.40000 2.49428
v -0.23910 1.40000 1.12487
v -0.31698 1.44000 1.10545
v -0.70288 1.44000 2.45122
v -1.31335 1.44000 2.18578
v -0.59229 1.44000 0.98574
v -0.31698 1.64000 1.10545
v -0.70288 1.64000 2.45122
v -1.31335 1.64000 2.18578
v -0.59229 1.64000 0.98574
v -0.65961 1.68000 0.94202
v -1.46262 1.68000 2.08884
v -1.95341 1.68000 1.63911
v -0.88095 1.68000 0.73921
v -0.65961 1.88000 0.94202
v -1.46262 1.88000 2.08884
v -1.95341 1.88000 1.63911
v -0.88095 1.88000 0.73921
v -0.93037 1.92000 0.67595
v -2.06299 1.92000 1.49885
v -2.38063 1.92000 0.91384
v -1.07362 1.92000 0.41212
v -0.93037 2.12000 0.67595
v -2.06299 2.12000 1.49885
v -2.38063 2.12000 0.91384
v -1.07362 2.12000 0.41212
v -1.09975 2.16000 0.33623
v -2.43858 2.16000 0.74555
v -2.54845 2.16000 0.08899
v -1.14930 2.16000 0.04013
v -1.09975 2.36000 0.33623
v -2.43858 2.36000 0.74555
v -2.54845 2.36000 0.08899
v -1.14930 2.36000 0.04013
v -1.14930 1.98000 -0.04013
v -2.54845 1.98000 -0.08899
v -2.43858 1.98000 -0.74555
v -1.09975 1.98000 -0.33623
v -1.14930 2.18000 -0.04013
v -2.54845 2.18000 -0.08899
v -2.43858 2.18000 -0.74555
v -1.09975 2.18000 -0.33623
v -1.07362 1.80000 -0.41212
v -2.38063 1.80000 -0.91384
v -2.06299 1.80000 -1.49885
v -0.93037 1.80000 -0.67595
v -1.07362 2.00000 -0.41212
v -2.38063 2.00000 -0.91384
v -2.06299 2.00000 -1.49885
v -0.93037 2.00000 -0.67595
v -0.88095 1.62000 -0.73921
v -1.95341 1.62000 -1.63911
v -1.46262 1.62000 -2.08884
v -0.65961 1.62000 -0.94202
v -0.88095 1.82000 -0.73921
v -1.95341 1.82000 -1.63911
v -1.46262 1.82000 -2.08884
v -0.65961 1.82000 -0.94202
v -0.59229 1.44000 -0.98574
v -1.31335 1.44000 -2.18578
v -0.70288 1.44000 -2.45122
v -0.31698 1.44000 -1.10545
v -0.59229 1.64000 -0.98574
v -1.31335 1.64000 -2.18578
v -0.70288 1.64000 -2.45122
v -0.31698 1.64000 -1.10545
v 0.41575 0.00000 0.17221
v 0.41575 2.90000 0.17221
v 0.17221 0.00000 0.41575
v 0.17221 2.90000 0.41575
v -0.17221 0.00000 0.41575
v -0.17221 2.90000 0.41575
v -0.41575 0.00000 0.17221
v -0.41575 2.90000 0.17221
v -0.41575 0.00000 -0.17221
v -0.41575 2.90000 -0.17221
v -0.17221 0.00000 -0.41575
v -0.17221 2.90000 -0.41575
v 0.17221 0.00000 -0.41575
v 0.17221 2.90000 -0.41575
v 0.41575 0.00000 -0.17221
v 0.41575 2.90000 -0.17221
g Step_00
f 5 6 7 8
f 2 1 4 3
f 1 5 8 4
f 6 2 3 7
f 4 8 7 3
f 1 2 6 5
g Step_01
f 13 14 15 16
f 10 9 12 11
f 9 13 16 12
f 14 10 11 15
f 12 16 15 11
f 9 10 14 13
g Step_02
f 21 22 23 24
f 18 17 20 19
f 17 21 24 20
f 22 18 19 23
f 20 24 23 19
f 17 18 22 21
g Step_03
f 29 30 31 32
f 26 25 28 27
f 25 29 32 28
f 30 26 27 31
f 28 32 31 27
f 25 26 30 29
g Step_04
f 37 38 39 40
f 34 33 36 35
f 33 37 40 36
f 38 34 35 39
f 36 40 39 35
f 33 34 38 37
g Step_05
f 45 46 47 48
f 42 41 44 43
f 41 45 48 44
f 46 42 43 47
f 44 48 47 43
f 41 42 46 45
g Step_06
f 53 54 55 56
f 50 49 52 51
f 49 53 56 52
f 54 50 51 55
f 52 56 55 51
f 49 50 54 53
g Step_07
f 61 62 63 64
f 58 57 60 59
f 57 61 64 60
f 62 58 59 63
f 60 64 63 59
f 57 58 62 61
g Step_08
f 69 70 71 72
f 66 65 68 67
f 65 69 72 68
f 70 66 67 71
f 68 72 71 67
f 65 66 70 69
g Step_09
f 77 78 79 80
f 74 73 76 75
f 73 77 80 76
f 78 74 75 79
f 76 80 79 75
f 73 74 78 77
g Step_10
f 85 86 87 88
f 82 81 84 83
f 81 85 88 84
f 86 82 83 87
f 84 88 87 83
f 81 82 86 85
g Step_11
f 93 94 95 96
f 90 89 92 91
f 89 93 96 92
f 94 90 91 95
f 92 96 95 91
f 89 90 94 93
g Step_12
f 101 102 103 104
f 98 97 100 99
f 97 101 104 100
f 102 98 99 103
f 100 104 103 99
f 97 98 102 101
g Step_13
f 109 110 111 112
f 106 105 108 107
f 105 109 112 108
f 110 106 107 111
f 108 112 111 107
f 105 106 110 109
g Column
f 113 115 116 114
f 115 117 118 116
f 117 119 120 118
f 119 121 122 120
f 121 123 124 122
f 123 125 126 124
f 125 127 128 126
f 127 113 114 128
f 127 125 123 121 119 117 115 113
f 114 116 118 120 122 124 126 128
