o PupitreEscolarPSX
g part_1
v -0.7750 0.7800 -0.3600
v 0.7750 0.7800 -0.3600
v 0.7750 0.8800 -0.3600
v -0.7750 0.8800 -0.3600
v -0.7750 0.7800 0.3600
v 0.7750 0.7800 0.3600
v 0.7750 0.8800 0.3600
v -0.7750 0.8800 0.3600
f 1 2 3 4
f 5 8 7 6
f 1 5 6 2
f 2 6 7 3
f 3 7 8 4
f 5 1 4 8
g part_2
v -0.6250 0.4000 0.2550
v 0.6250 0.4000 0.2550
v 0.6250 0.8200 0.2550
v -0.6250 0.8200 0.2550
v -0.6250 0.4000 0.3250
v 0.6250 0.4000 0.3250
v 0.6250 0.8200 0.3250
v -0.6250 0.8200 0.3250
f 9 10 11 12
f 13 16 15 14
f 9 13 14 10
f 10 14 15 11
f 11 15 16 12
f 13 9 12 16
g part_3
v -0.6200 0.0000 0.1800
v -0.5400 0.0000 0.1800
v -0.5400 0.7800 0.1800
v -0.6200 0.7800 0.1800
v -0.6200 0.0000 0.2600
v -0.5400 0.0000 0.2600
v -0.5400 0.7800 0.2600
v -0.6200 0.7800 0.2600
f 17 18 19 20
f 21 24 23 22
f 17 21 22 18
f 18 22 23 19
f 19 23 24 20
f 21 17 20 24
g part_4
v 0.5400 0.0000 0.1800
v 0.6200 0.0000 0.1800
v 0.6200 0.7800 0.1800
v 0.5400 0.7800 0.1800
v 0.5400 0.0000 0.2600
v 0.6200 0.0000 0.2600
v 0.6200 0.7800 0.2600
v 0.5400 0.7800 0.2600
f 25 26 27 28
f 29 32 31 30
f 25 29 30 26
f 26 30 31 27
f 27 31 32 28
f 29 25 28 32
g part_5
v -0.6200 0.0000 -0.2600
v -0.5400 0.0000 -0.2600
v -0.5400 0.7800 -0.2600
v -0.6200 0.7800 -0.2600
v -0.6200 0.0000 -0.1800
v -0.5400 0.0000 -0.1800
v -0.5400 0.7800 -0.1800
v -0.6200 0.7800 -0.1800
f 33 34 35 36
f 37 40 39 38
f 33 37 38 34
f 34 38 39 35
f 35 39 40 36
f 37 33 36 40
g part_6
v 0.5400 0.0000 -0.2600
v 0.6200 0.0000 -0.2600
v 0.6200 0.7800 -0.2600
v 0.5400 0.7800 -0.2600
v 0.5400 0.0000 -0.1800
v 0.6200 0.0000 -0.1800
v 0.6200 0.7800 -0.1800
v 0.5400 0.7800 -0.1800
f 41 42 43 44
f 45 48 47 46
f 41 45 46 42
f 42 46 47 43
f 43 47 48 44
f 45 41 44 48
g part_7
v -0.6000 0.1525 0.2525
v 0.6000 0.1525 0.2525
v 0.6000 0.2075 0.2525
v -0.6000 0.2075 0.2525
v -0.6000 0.1525 0.3075
v 0.6000 0.1525 0.3075
v 0.6000 0.2075 0.3075
v -0.6000 0.2075 0.3075
f 49 50 51 52
f 53 56 55 54
f 49 53 54 50
f 50 54 55 51
f 51 55 56 52
f 53 49 52 56
