# Original project derivative for EspacioKoop/expediente-legado #947
# Recentered standalone tower extracted from the project-authored #284 gate.
# Contains tower body, pointed roof and one arrow slit; no wall/arch duplication.
o TorreCastilloPSX
v 1.27495 0.00000 0.52810
v 1.09018 5.00000 0.45157
v 0.52810 0.00000 1.27495
v 0.45157 5.00000 1.09018
v -0.52810 0.00000 1.27495
v -0.45157 5.00000 1.09018
v -1.27495 0.00000 0.52810
v -1.09018 5.00000 0.45157
v -1.27495 0.00000 -0.52810
v -1.09018 5.00000 -0.45157
v -0.52810 0.00000 -1.27495
v -0.45157 5.00000 -1.09018
v 0.52810 0.00000 -1.27495
v 0.45157 5.00000 -1.09018
v 1.27495 0.00000 -0.52810
v 1.09018 5.00000 -0.45157
v 1.27495 5.00000 0.52810
v 0.52810 5.00000 1.27495
v -0.52810 5.00000 1.27495
v -1.27495 5.00000 0.52810
v -1.27495 5.00000 -0.52810
v -0.52810 5.00000 -1.27495
v 0.52810 5.00000 -1.27495
v 1.27495 5.00000 -0.52810
v 0.00000 7.15000 0.00000
v -0.18000 2.15000 1.17000
v 0.18000 2.15000 1.17000
v 0.18000 3.35000 1.17000
v -0.18000 3.35000 1.17000
v -0.18000 2.15000 1.24000
v 0.18000 2.15000 1.24000
v 0.18000 3.35000 1.24000
v -0.18000 3.35000 1.24000
g Tower
f 1 3 4 2
f 3 5 6 4
f 5 7 8 6
f 7 9 10 8
f 9 11 12 10
f 11 13 14 12
f 13 15 16 14
f 15 1 2 16
f 15 13 11 9 7 5 3 1
f 2 4 6 8 10 12 14 16
g Roof
f 17 18 25
f 18 19 25
f 19 20 25
f 20 21 25
f 21 22 25
f 22 23 25
f 23 24 25
f 24 17 25
g ArrowSlit
f 30 31 32 33
f 27 26 29 28
f 26 30 33 29
f 31 27 28 32
f 29 33 32 28
f 26 27 31 30
