# Nudo central de raíces para #653
mtllib yggdrasil.mtl
s off
o nucleo
usemtl corteza_oscura
v -0.70 0.00 -0.70
v 0.70 0.00 -0.70
v 0.92 0.95 -0.52
v -0.80 1.10 -0.60
v -0.70 0.00 0.70
v 0.70 0.00 0.70
v 0.92 0.95 0.52
v -0.80 1.10 0.60
f 1 2 3 4
f 5 8 7 6
f 1 5 6 2
f 2 6 7 3
f 3 7 8 4
f 5 1 4 8

o raiz_norte
usemtl corteza_clara
v -0.22 0.10 -2.20
v 0.22 0.10 -2.20
v 0.38 0.42 -0.55
v -0.36 0.40 -0.55
v -0.18 -0.10 -2.20
v 0.18 -0.10 -2.20
v 0.32 0.15 -0.55
v -0.30 0.14 -0.55
f 9 10 11 12
f 13 16 15 14
f 9 13 14 10
f 10 14 15 11
f 11 15 16 12
f 13 9 12 16

o raiz_este
usemtl fibra_humeda
v 0.55 0.18 -0.34
v 2.25 0.08 -0.18
v 2.25 0.34 0.18
v 0.58 0.46 0.34
v 0.55 -0.05 -0.28
v 2.25 -0.08 -0.14
v 2.25 0.10 0.14
v 0.58 0.16 0.28
f 17 18 19 20
f 21 24 23 22
f 17 21 22 18
f 18 22 23 19
f 19 23 24 20
f 21 17 20 24

o raiz_oeste
usemtl corteza_clara
v -2.10 0.04 -0.22
v -0.58 0.18 -0.34
v -0.58 0.46 0.34
v -2.10 0.30 0.20
v -2.10 -0.10 -0.18
v -0.58 -0.05 -0.28
v -0.58 0.16 0.28
v -2.10 0.08 0.16
f 25 26 27 28
f 29 32 31 30
f 25 29 30 26
f 26 30 31 27
f 27 31 32 28
f 29 25 28 32
