# Raíz-pasarela modular para #653
mtllib yggdrasil.mtl
s off
o tramo_0
usemtl corteza_oscura
v -0.55 0.00 -0.90
v 0.55 0.00 -0.90
v 0.50 0.48 -0.85
v -0.50 0.42 -0.85
v -0.55 0.00 0.10
v 0.55 0.00 0.10
v 0.50 0.48 0.15
v -0.50 0.42 0.15
f 1 2 3 4
f 5 8 7 6
f 1 5 6 2
f 2 6 7 3
f 3 7 8 4
f 5 1 4 8

o tramo_1
usemtl corteza_clara
v -0.50 0.16 0.05
v 0.50 0.16 0.05
v 0.44 0.56 0.10
v -0.44 0.52 0.10
v -0.42 0.18 1.15
v 0.42 0.18 1.15
v 0.38 0.58 1.18
v -0.38 0.54 1.18
f 9 10 11 12
f 13 16 15 14
f 9 13 14 10
f 10 14 15 11
f 11 15 16 12
f 13 9 12 16

o tramo_2
usemtl fibra_humeda
v -0.42 0.18 1.10
v 0.42 0.18 1.10
v 0.38 0.58 1.18
v -0.38 0.54 1.18
v -0.62 0.05 2.25
v 0.26 0.05 2.25
v 0.30 0.50 2.28
v -0.56 0.46 2.28
f 17 18 19 20
f 21 24 23 22
f 17 21 22 18
f 18 22 23 19
f 19 23 24 20
f 21 17 20 24

o tramo_3
usemtl corteza_oscura
v -0.62 0.05 2.20
v 0.26 0.05 2.20
v 0.30 0.50 2.28
v -0.56 0.46 2.28
v -0.32 0.20 3.35
v 0.58 0.20 3.35
v 0.50 0.64 3.40
v -0.38 0.60 3.40
f 25 26 27 28
f 29 32 31 30
f 25 29 30 26
f 26 30 31 27
f 27 31 32 28
f 29 25 28 32

o tramo_4
usemtl corteza_clara
v -0.32 0.20 3.30
v 0.58 0.20 3.30
v 0.50 0.64 3.40
v -0.38 0.60 3.40
v -0.50 0.02 4.45
v 0.50 0.02 4.45
v 0.46 0.44 4.50
v -0.46 0.48 4.50
f 33 34 35 36
f 37 40 39 38
f 33 37 38 34
f 34 38 39 35
f 35 39 40 36
f 37 33 36 40
