# Original asset for Expediente Legado — no trademarks/logos
mtllib props_originales_98.mtl
o consola_portatil_98
v -0.12000 0.00000 -0.03250
v 0.12000 0.00000 -0.03250
v 0.12000 0.36000 -0.03250
v -0.12000 0.36000 -0.03250
v -0.12000 0.00000 0.03250
v 0.12000 0.00000 0.03250
v 0.12000 0.36000 0.03250
v -0.12000 0.36000 0.03250
usemtl plastico_teal
f 1 2 3 4
f 6 5 8 7
f 5 1 4 8
f 2 6 7 3
f 4 3 7 8
f 5 6 2 1
v -0.09750 0.18000 -0.04550
v 0.09750 0.18000 -0.04550
v 0.09750 0.33000 -0.04550
v -0.09750 0.33000 -0.04550
v -0.09750 0.18000 -0.03050
v 0.09750 0.18000 -0.03050
v 0.09750 0.33000 -0.03050
v -0.09750 0.33000 -0.03050
usemtl plastico_oscuro
f 9 10 11 12
f 14 13 16 15
f 13 9 12 16
f 10 14 15 11
f 12 11 15 16
f 13 14 10 9
v -0.07400 0.20100 -0.05100
v 0.07400 0.20100 -0.05100
v 0.07400 0.30900 -0.05100
v -0.07400 0.30900 -0.05100
v -0.07400 0.20100 -0.04300
v 0.07400 0.20100 -0.04300
v 0.07400 0.30900 -0.04300
v -0.07400 0.30900 -0.04300
usemtl pantalla
f 17 18 19 20
f 22 21 24 23
f 21 17 20 24
f 18 22 23 19
f 20 19 23 24
f 21 22 18 17
v -0.10000 0.09450 -0.05350
v -0.03000 0.09450 -0.05350
v -0.03000 0.11550 -0.05350
v -0.10000 0.11550 -0.05350
v -0.10000 0.09450 -0.04050
v -0.03000 0.09450 -0.04050
v -0.03000 0.11550 -0.04050
v -0.10000 0.11550 -0.04050
usemtl plastico_oscuro
f 25 26 27 28
f 30 29 32 31
f 29 25 28 32
f 26 30 31 27
f 28 27 31 32
f 29 30 26 25
v -0.07550 0.07000 -0.05350
v -0.05450 0.07000 -0.05350
v -0.05450 0.14000 -0.05350
v -0.07550 0.14000 -0.05350
v -0.07550 0.07000 -0.04050
v -0.05450 0.07000 -0.04050
v -0.05450 0.14000 -0.04050
v -0.07550 0.14000 -0.04050
usemtl plastico_oscuro
f 33 34 35 36
f 38 37 40 39
f 37 33 36 40
f 34 38 39 35
f 36 35 39 40
f 37 38 34 33
v 0.08200 0.10850 -0.05000
v 0.08200 0.12150 -0.05000
v 0.08055 0.10850 -0.04273
v 0.08055 0.12150 -0.04273
v 0.07644 0.10850 -0.03656
v 0.07644 0.12150 -0.03656
v 0.07027 0.10850 -0.03245
v 0.07027 0.12150 -0.03245
v 0.06300 0.10850 -0.03100
v 0.06300 0.12150 -0.03100
v 0.05573 0.10850 -0.03245
v 0.05573 0.12150 -0.03245
v 0.04956 0.10850 -0.03656
v 0.04956 0.12150 -0.03656
v 0.04545 0.10850 -0.04273
v 0.04545 0.12150 -0.04273
v 0.04400 0.10850 -0.05000
v 0.04400 0.12150 -0.05000
v 0.04545 0.10850 -0.05727
v 0.04545 0.12150 -0.05727
v 0.04956 0.10850 -0.06344
v 0.04956 0.12150 -0.06344
v 0.05573 0.10850 -0.06755
v 0.05573 0.12150 -0.06755
v 0.06300 0.10850 -0.06900
v 0.06300 0.12150 -0.06900
v 0.07027 0.10850 -0.06755
v 0.07027 0.12150 -0.06755
v 0.07644 0.10850 -0.06344
v 0.07644 0.12150 -0.06344
v 0.08055 0.10850 -0.05727
v 0.08055 0.12150 -0.05727
v 0.06300 0.10850 -0.05000
v 0.06300 0.12150 -0.05000
usemtl boton_rojo
f 41 43 44 42
f 43 45 46 44
f 45 47 48 46
f 47 49 50 48
f 49 51 52 50
f 51 53 54 52
f 53 55 56 54
f 55 57 58 56
f 57 59 60 58
f 59 61 62 60
f 61 63 64 62
f 63 65 66 64
f 65 67 68 66
f 67 69 70 68
f 69 71 72 70
f 71 41 42 72
f 73 43 41
f 74 42 44
f 73 45 43
f 74 44 46
f 73 47 45
f 74 46 48
f 73 49 47
f 74 48 50
f 73 51 49
f 74 50 52
f 73 53 51
f 74 52 54
f 73 55 53
f 74 54 56
f 73 57 55
f 74 56 58
f 73 59 57
f 74 58 60
f 73 61 59
f 74 60 62
f 73 63 61
f 74 62 64
f 73 65 63
f 74 64 66
f 73 67 65
f 74 66 68
f 73 69 67
f 74 68 70
f 73 71 69
f 74 70 72
f 73 41 71
f 74 72 42
v 0.11000 0.07850 -0.05000
v 0.11000 0.09150 -0.05000
v 0.10855 0.07850 -0.04273
v 0.10855 0.09150 -0.04273
v 0.10444 0.07850 -0.03656
v 0.10444 0.09150 -0.03656
v 0.09827 0.07850 -0.03245
v 0.09827 0.09150 -0.03245
v 0.09100 0.07850 -0.03100
v 0.09100 0.09150 -0.03100
v 0.08373 0.07850 -0.03245
v 0.08373 0.09150 -0.03245
v 0.07756 0.07850 -0.03656
v 0.07756 0.09150 -0.03656
v 0.07345 0.07850 -0.04273
v 0.07345 0.09150 -0.04273
v 0.07200 0.07850 -0.05000
v 0.07200 0.09150 -0.05000
v 0.07345 0.07850 -0.05727
v 0.07345 0.09150 -0.05727
v 0.07756 0.07850 -0.06344
v 0.07756 0.09150 -0.06344
v 0.08373 0.07850 -0.06755
v 0.08373 0.09150 -0.06755
v 0.09100 0.07850 -0.06900
v 0.09100 0.09150 -0.06900
v 0.09827 0.07850 -0.06755
v 0.09827 0.09150 -0.06755
v 0.10444 0.07850 -0.06344
v 0.10444 0.09150 -0.06344
v 0.10855 0.07850 -0.05727
v 0.10855 0.09150 -0.05727
v 0.09100 0.07850 -0.05000
v 0.09100 0.09150 -0.05000
usemtl boton_ambar
f 75 77 78 76
f 77 79 80 78
f 79 81 82 80
f 81 83 84 82
f 83 85 86 84
f 85 87 88 86
f 87 89 90 88
f 89 91 92 90
f 91 93 94 92
f 93 95 96 94
f 95 97 98 96
f 97 99 100 98
f 99 101 102 100
f 101 103 104 102
f 103 105 106 104
f 105 75 76 106
f 107 77 75
f 108 76 78
f 107 79 77
f 108 78 80
f 107 81 79
f 108 80 82
f 107 83 81
f 108 82 84
f 107 85 83
f 108 84 86
f 107 87 85
f 108 86 88
f 107 89 87
f 108 88 90
f 107 91 89
f 108 90 92
f 107 93 91
f 108 92 94
f 107 95 93
f 108 94 96
f 107 97 95
f 108 96 98
f 107 99 97
f 108 98 100
f 107 101 99
f 108 100 102
f 107 103 101
f 108 102 104
f 107 105 103
f 108 104 106
f 107 75 105
f 108 106 76
v -0.04100 0.04650 -0.05250
v 0.00100 0.04650 -0.05250
v 0.00100 0.05750 -0.05250
v -0.04100 0.05750 -0.05250
v -0.04100 0.04650 -0.04150
v 0.00100 0.04650 -0.04150
v 0.00100 0.05750 -0.04150
v -0.04100 0.05750 -0.04150
usemtl goma
f 109 110 111 112
f 114 113 116 115
f 113 109 112 116
f 110 114 115 111
f 112 111 115 116
f 113 114 110 109
v 0.00900 0.04650 -0.05250
v 0.05100 0.04650 -0.05250
v 0.05100 0.05750 -0.05250
v 0.00900 0.05750 -0.05250
v 0.00900 0.04650 -0.04150
v 0.05100 0.04650 -0.04150
v 0.05100 0.05750 -0.04150
v 0.00900 0.05750 -0.04150
usemtl goma
f 117 118 119 120
f 122 121 124 123
f 121 117 120 124
f 118 122 123 119
f 120 119 123 124
f 121 122 118 117
v -0.06750 0.34500 -0.01300
v 0.06750 0.34500 -0.01300
v 0.06750 0.36500 -0.01300
v -0.06750 0.36500 -0.01300
v -0.06750 0.34500 0.03300
v 0.06750 0.34500 0.03300
v 0.06750 0.36500 0.03300
v -0.06750 0.36500 0.03300
usemtl plastico_oscuro
f 125 126 127 128
f 130 129 132 131
f 129 125 128 132
f 126 130 131 127
f 128 127 131 132
f 129 130 126 125
