# Original asset for Expediente Legado — no trademarks/logos
mtllib props_originales_98.mtl
o impresora_termica_98
v -0.14000 0.01000 -0.15000
v 0.14000 0.01000 -0.15000
v 0.14000 0.19000 -0.15000
v -0.14000 0.19000 -0.15000
v -0.14000 0.01000 0.15000
v 0.14000 0.01000 0.15000
v 0.14000 0.19000 0.15000
v -0.14000 0.19000 0.15000
usemtl plastico_beige
f 1 2 3 4
f 6 5 8 7
f 5 1 4 8
f 2 6 7 3
f 4 3 7 8
f 5 6 2 1
v -0.12000 0.17750 -0.13500
v 0.12000 0.17750 -0.13500
v 0.12000 0.22250 -0.13500
v -0.12000 0.22250 -0.13500
v -0.12000 0.17750 0.04500
v 0.12000 0.17750 0.04500
v 0.12000 0.22250 0.04500
v -0.12000 0.22250 0.04500
usemtl plastico_beige
f 9 10 11 12
f 14 13 16 15
f 13 9 12 16
f 10 14 15 11
f 12 11 15 16
f 13 14 10 9
v -0.09500 0.15900 -0.17050
v 0.09500 0.15900 -0.17050
v 0.09500 0.17700 -0.17050
v -0.09500 0.17700 -0.17050
v -0.09500 0.15900 -0.14550
v 0.09500 0.15900 -0.14550
v 0.09500 0.17700 -0.14550
v -0.09500 0.17700 -0.14550
usemtl plastico_oscuro
f 17 18 19 20
f 22 21 24 23
f 21 17 20 24
f 18 22 23 19
f 20 19 23 24
f 21 22 18 17
v -0.10000 0.13250 0.13600
v 0.10000 0.13250 0.13600
v 0.10000 0.15750 0.13600
v -0.10000 0.15750 0.13600
v -0.10000 0.13250 0.15400
v 0.10000 0.13250 0.15400
v 0.10000 0.15750 0.15400
v -0.10000 0.15750 0.15400
usemtl metal_oscuro
f 25 26 27 28
f 30 29 32 31
f 29 25 28 32
f 26 30 31 27
f 28 27 31 32
f 29 30 26 25
v -0.11750 0.19200 -0.11000
v -0.06250 0.19200 -0.11000
v -0.06250 0.21200 -0.11000
v -0.11750 0.21200 -0.11000
v -0.11750 0.19200 -0.07000
v -0.06250 0.19200 -0.07000
v -0.06250 0.21200 -0.07000
v -0.11750 0.21200 -0.07000
usemtl plastico_oscuro
f 33 34 35 36
f 38 37 40 39
f 37 33 36 40
f 34 38 39 35
f 36 35 39 40
f 37 38 34 33
v 0.06250 0.19200 -0.11000
v 0.11750 0.19200 -0.11000
v 0.11750 0.21200 -0.11000
v 0.06250 0.21200 -0.11000
v 0.06250 0.19200 -0.07000
v 0.11750 0.19200 -0.07000
v 0.11750 0.21200 -0.07000
v 0.06250 0.21200 -0.07000
usemtl plastico_oscuro
f 41 42 43 44
f 46 45 48 47
f 45 41 44 48
f 42 46 47 43
f 44 43 47 48
f 45 46 42 41
