# Original asset for Expediente Legado — no trademarks/logos
mtllib props_originales_98.mtl
o lampara_pie_98
v 0.30000 0.00000 0.00000
v 0.29000 0.11000 0.00000
v 0.28532 0.00000 0.09271
v 0.27581 0.11000 0.08961
v 0.24271 0.00000 0.17634
v 0.23461 0.11000 0.17046
v 0.17634 0.00000 0.24271
v 0.17046 0.11000 0.23461
v 0.09271 0.00000 0.28532
v 0.08961 0.11000 0.27581
v 0.00000 0.00000 0.30000
v 0.00000 0.11000 0.29000
v -0.09271 0.00000 0.28532
v -0.08961 0.11000 0.27581
v -0.17634 0.00000 0.24271
v -0.17046 0.11000 0.23461
v -0.24271 0.00000 0.17634
v -0.23461 0.11000 0.17046
v -0.28532 0.00000 0.09271
v -0.27581 0.11000 0.08961
v -0.30000 0.00000 0.00000
v -0.29000 0.11000 0.00000
v -0.28532 0.00000 -0.09271
v -0.27581 0.11000 -0.08961
v -0.24271 0.00000 -0.17634
v -0.23461 0.11000 -0.17046
v -0.17634 0.00000 -0.24271
v -0.17046 0.11000 -0.23461
v -0.09271 0.00000 -0.28532
v -0.08961 0.11000 -0.27581
v -0.00000 0.00000 -0.30000
v -0.00000 0.11000 -0.29000
v 0.09271 0.00000 -0.28532
v 0.08961 0.11000 -0.27581
v 0.17634 0.00000 -0.24271
v 0.17046 0.11000 -0.23461
v 0.24271 0.00000 -0.17634
v 0.23461 0.11000 -0.17046
v 0.28532 0.00000 -0.09271
v 0.27581 0.11000 -0.08961
v 0.00000 0.00000 0.00000
v 0.00000 0.11000 0.00000
usemtl metal_oscuro
f 1 3 4 2
f 3 5 6 4
f 5 7 8 6
f 7 9 10 8
f 9 11 12 10
f 11 13 14 12
f 13 15 16 14
f 15 17 18 16
f 17 19 20 18
f 19 21 22 20
f 21 23 24 22
f 23 25 26 24
f 25 27 28 26
f 27 29 30 28
f 29 31 32 30
f 31 33 34 32
f 33 35 36 34
f 35 37 38 36
f 37 39 40 38
f 39 1 2 40
f 41 3 1
f 42 2 4
f 41 5 3
f 42 4 6
f 41 7 5
f 42 6 8
f 41 9 7
f 42 8 10
f 41 11 9
f 42 10 12
f 41 13 11
f 42 12 14
f 41 15 13
f 42 14 16
f 41 17 15
f 42 16 18
f 41 19 17
f 42 18 20
f 41 21 19
f 42 20 22
f 41 23 21
f 42 22 24
f 41 25 23
f 42 24 26
f 41 27 25
f 42 26 28
f 41 29 27
f 42 28 30
f 41 31 29
f 42 30 32
f 41 33 31
f 42 32 34
f 41 35 33
f 42 34 36
f 41 37 35
f 42 36 38
f 41 39 37
f 42 38 40
f 41 1 39
f 42 40 2
v 0.03200 0.05000 0.00000
v 0.02800 1.59000 0.00000
v 0.02883 0.05000 0.01388
v 0.02523 1.59000 0.01215
v 0.01995 0.05000 0.02502
v 0.01746 1.59000 0.02189
v 0.00712 0.05000 0.03120
v 0.00623 1.59000 0.02730
v -0.00712 0.05000 0.03120
v -0.00623 1.59000 0.02730
v -0.01995 0.05000 0.02502
v -0.01746 1.59000 0.02189
v -0.02883 0.05000 0.01388
v -0.02523 1.59000 0.01215
v -0.03200 0.05000 0.00000
v -0.02800 1.59000 0.00000
v -0.02883 0.05000 -0.01388
v -0.02523 1.59000 -0.01215
v -0.01995 0.05000 -0.02502
v -0.01746 1.59000 -0.02189
v -0.00712 0.05000 -0.03120
v -0.00623 1.59000 -0.02730
v 0.00712 0.05000 -0.03120
v 0.00623 1.59000 -0.02730
v 0.01995 0.05000 -0.02502
v 0.01746 1.59000 -0.02189
v 0.02883 0.05000 -0.01388
v 0.02523 1.59000 -0.01215
v 0.00000 0.05000 0.00000
v 0.00000 1.59000 0.00000
usemtl metal_mate
f 43 45 46 44
f 45 47 48 46
f 47 49 50 48
f 49 51 52 50
f 51 53 54 52
f 53 55 56 54
f 55 57 58 56
f 57 59 60 58
f 59 61 62 60
f 61 63 64 62
f 63 65 66 64
f 65 67 68 66
f 67 69 70 68
f 69 43 44 70
f 71 45 43
f 72 44 46
f 71 47 45
f 72 46 48
f 71 49 47
f 72 48 50
f 71 51 49
f 72 50 52
f 71 53 51
f 72 52 54
f 71 55 53
f 72 54 56
f 71 57 55
f 72 56 58
f 71 59 57
f 72 58 60
f 71 61 59
f 72 60 62
f 71 63 61
f 72 62 64
f 71 65 63
f 72 64 66
f 71 67 65
f 72 66 68
f 71 69 67
f 72 68 70
f 71 43 69
f 72 70 44
v 0.39000 1.40000 0.00000
v 0.23000 1.84000 0.00000
v 0.37091 1.40000 0.12052
v 0.21874 1.84000 0.07107
v 0.31552 1.40000 0.22924
v 0.18607 1.84000 0.13519
v 0.22924 1.40000 0.31552
v 0.13519 1.84000 0.18607
v 0.12052 1.40000 0.37091
v 0.07107 1.84000 0.21874
v 0.00000 1.40000 0.39000
v 0.00000 1.84000 0.23000
v -0.12052 1.40000 0.37091
v -0.07107 1.84000 0.21874
v -0.22924 1.40000 0.31552
v -0.13519 1.84000 0.18607
v -0.31552 1.40000 0.22924
v -0.18607 1.84000 0.13519
v -0.37091 1.40000 0.12052
v -0.21874 1.84000 0.07107
v -0.39000 1.40000 0.00000
v -0.23000 1.84000 0.00000
v -0.37091 1.40000 -0.12052
v -0.21874 1.84000 -0.07107
v -0.31552 1.40000 -0.22924
v -0.18607 1.84000 -0.13519
v -0.22924 1.40000 -0.31552
v -0.13519 1.84000 -0.18607
v -0.12052 1.40000 -0.37091
v -0.07107 1.84000 -0.21874
v -0.00000 1.40000 -0.39000
v -0.00000 1.84000 -0.23000
v 0.12052 1.40000 -0.37091
v 0.07107 1.84000 -0.21874
v 0.22924 1.40000 -0.31552
v 0.13519 1.84000 -0.18607
v 0.31552 1.40000 -0.22924
v 0.18607 1.84000 -0.13519
v 0.37091 1.40000 -0.12052
v 0.21874 1.84000 -0.07107
v 0.00000 1.40000 0.00000
v 0.00000 1.84000 0.00000
usemtl tela_crema
f 73 75 76 74
f 75 77 78 76
f 77 79 80 78
f 79 81 82 80
f 81 83 84 82
f 83 85 86 84
f 85 87 88 86
f 87 89 90 88
f 89 91 92 90
f 91 93 94 92
f 93 95 96 94
f 95 97 98 96
f 97 99 100 98
f 99 101 102 100
f 101 103 104 102
f 103 105 106 104
f 105 107 108 106
f 107 109 110 108
f 109 111 112 110
f 111 73 74 112
f 113 75 73
f 114 74 76
f 113 77 75
f 114 76 78
f 113 79 77
f 114 78 80
f 113 81 79
f 114 80 82
f 113 83 81
f 114 82 84
f 113 85 83
f 114 84 86
f 113 87 85
f 114 86 88
f 113 89 87
f 114 88 90
f 113 91 89
f 114 90 92
f 113 93 91
f 114 92 94
f 113 95 93
f 114 94 96
f 113 97 95
f 114 96 98
f 113 99 97
f 114 98 100
f 113 101 99
f 114 100 102
f 113 103 101
f 114 102 104
f 113 105 103
f 114 104 106
f 113 107 105
f 114 106 108
f 113 109 107
f 114 108 110
f 113 111 109
f 114 110 112
f 113 73 111
f 114 112 74
v 0.05500 1.83750 0.00000
v 0.05500 1.87250 0.00000
v 0.04955 1.83750 0.02386
v 0.04955 1.87250 0.02386
v 0.03429 1.83750 0.04300
v 0.03429 1.87250 0.04300
v 0.01224 1.83750 0.05362
v 0.01224 1.87250 0.05362
v -0.01224 1.83750 0.05362
v -0.01224 1.87250 0.05362
v -0.03429 1.83750 0.04300
v -0.03429 1.87250 0.04300
v -0.04955 1.83750 0.02386
v -0.04955 1.87250 0.02386
v -0.05500 1.83750 0.00000
v -0.05500 1.87250 0.00000
v -0.04955 1.83750 -0.02386
v -0.04955 1.87250 -0.02386
v -0.03429 1.83750 -0.04300
v -0.03429 1.87250 -0.04300
v -0.01224 1.83750 -0.05362
v -0.01224 1.87250 -0.05362
v 0.01224 1.83750 -0.05362
v 0.01224 1.87250 -0.05362
v 0.03429 1.83750 -0.04300
v 0.03429 1.87250 -0.04300
v 0.04955 1.83750 -0.02386
v 0.04955 1.87250 -0.02386
v 0.00000 1.83750 0.00000
v 0.00000 1.87250 0.00000
usemtl metal_mate
f 115 117 118 116
f 117 119 120 118
f 119 121 122 120
f 121 123 124 122
f 123 125 126 124
f 125 127 128 126
f 127 129 130 128
f 129 131 132 130
f 131 133 134 132
f 133 135 136 134
f 135 137 138 136
f 137 139 140 138
f 139 141 142 140
f 141 115 116 142
f 143 117 115
f 144 116 118
f 143 119 117
f 144 118 120
f 143 121 119
f 144 120 122
f 143 123 121
f 144 122 124
f 143 125 123
f 144 124 126
f 143 127 125
f 144 126 128
f 143 129 127
f 144 128 130
f 143 131 129
f 144 130 132
f 143 133 131
f 144 132 134
f 143 135 133
f 144 134 136
f 143 137 135
f 144 136 138
f 143 139 137
f 144 138 140
f 143 141 139
f 144 140 142
f 143 115 141
f 144 142 116
