# Original asset for Expediente Legado — no trademarks/logos
mtllib props_originales_98.mtl
o telefono_fijo_base_98
v -0.31000 0.00000 -0.23000
v 0.31000 0.00000 -0.23000
v 0.31000 0.15000 -0.23000
v -0.31000 0.15000 -0.23000
v -0.31000 0.00000 0.23000
v 0.31000 0.00000 0.23000
v 0.31000 0.15000 0.23000
v -0.31000 0.15000 0.23000
usemtl plastico_beige
f 1 2 3 4
f 6 5 8 7
f 5 1 4 8
f 2 6 7 3
f 4 3 7 8
f 5 6 2 1
v -0.25000 0.13000 -0.03500
v 0.25000 0.13000 -0.03500
v 0.25000 0.20000 -0.03500
v -0.25000 0.20000 -0.03500
v -0.25000 0.13000 0.18500
v 0.25000 0.13000 0.18500
v 0.25000 0.20000 0.18500
v -0.25000 0.20000 0.18500
usemtl plastico_beige
f 9 10 11 12
f 14 13 16 15
f 13 9 12 16
f 10 14 15 11
f 12 11 15 16
f 13 14 10 9
v -0.19000 0.19250 -0.02750
v 0.19000 0.19250 -0.02750
v 0.19000 0.21750 -0.02750
v -0.19000 0.21750 -0.02750
v -0.19000 0.19250 0.17750
v 0.19000 0.19250 0.17750
v 0.19000 0.21750 0.17750
v -0.19000 0.21750 0.17750
usemtl plastico_oscuro
f 17 18 19 20
f 22 21 24 23
f 21 17 20 24
f 18 22 23 19
f 20 19 23 24
f 21 22 18 17
v -0.14250 0.21600 -0.06950
v -0.06750 0.21600 -0.06950
v -0.06750 0.23400 -0.06950
v -0.14250 0.23400 -0.06950
v -0.14250 0.21600 -0.03550
v -0.06750 0.21600 -0.03550
v -0.06750 0.23400 -0.03550
v -0.14250 0.23400 -0.03550
usemtl plastico_beige
f 25 26 27 28
f 30 29 32 31
f 29 25 28 32
f 26 30 31 27
f 28 27 31 32
f 29 30 26 25
v -0.03750 0.21600 -0.06950
v 0.03750 0.21600 -0.06950
v 0.03750 0.23400 -0.06950
v -0.03750 0.23400 -0.06950
v -0.03750 0.21600 -0.03550
v 0.03750 0.21600 -0.03550
v 0.03750 0.23400 -0.03550
v -0.03750 0.23400 -0.03550
usemtl plastico_beige
f 33 34 35 36
f 38 37 40 39
f 37 33 36 40
f 34 38 39 35
f 36 35 39 40
f 37 38 34 33
v 0.06750 0.21600 -0.06950
v 0.14250 0.21600 -0.06950
v 0.14250 0.23400 -0.06950
v 0.06750 0.23400 -0.06950
v 0.06750 0.21600 -0.03550
v 0.14250 0.21600 -0.03550
v 0.14250 0.23400 -0.03550
v 0.06750 0.23400 -0.03550
usemtl plastico_beige
f 41 42 43 44
f 46 45 48 47
f 45 41 44 48
f 42 46 47 43
f 44 43 47 48
f 45 46 42 41
v -0.14250 0.21600 -0.02250
v -0.06750 0.21600 -0.02250
v -0.06750 0.23400 -0.02250
v -0.14250 0.23400 -0.02250
v -0.14250 0.21600 0.01150
v -0.06750 0.21600 0.01150
v -0.06750 0.23400 0.01150
v -0.14250 0.23400 0.01150
usemtl plastico_beige
f 49 50 51 52
f 54 53 56 55
f 53 49 52 56
f 50 54 55 51
f 52 51 55 56
f 53 54 50 49
v -0.03750 0.21600 -0.02250
v 0.03750 0.21600 -0.02250
v 0.03750 0.23400 -0.02250
v -0.03750 0.23400 -0.02250
v -0.03750 0.21600 0.01150
v 0.03750 0.21600 0.01150
v 0.03750 0.23400 0.01150
v -0.03750 0.23400 0.01150
usemtl plastico_beige
f 57 58 59 60
f 62 61 64 63
f 61 57 60 64
f 58 62 63 59
f 60 59 63 64
f 61 62 58 57
v 0.06750 0.21600 -0.02250
v 0.14250 0.21600 -0.02250
v 0.14250 0.23400 -0.02250
v 0.06750 0.23400 -0.02250
v 0.06750 0.21600 0.01150
v 0.14250 0.21600 0.01150
v 0.14250 0.23400 0.01150
v 0.06750 0.23400 0.01150
usemtl plastico_beige
f 65 66 67 68
f 70 69 72 71
f 69 65 68 72
f 66 70 71 67
f 68 67 71 72
f 69 70 66 65
v -0.14250 0.21600 0.02450
v -0.06750 0.21600 0.02450
v -0.06750 0.23400 0.02450
v -0.14250 0.23400 0.02450
v -0.14250 0.21600 0.05850
v -0.06750 0.21600 0.05850
v -0.06750 0.23400 0.05850
v -0.14250 0.23400 0.05850
usemtl plastico_beige
f 73 74 75 76
f 78 77 80 79
f 77 73 76 80
f 74 78 79 75
f 76 75 79 80
f 77 78 74 73
v -0.03750 0.21600 0.02450
v 0.03750 0.21600 0.02450
v 0.03750 0.23400 0.02450
v -0.03750 0.23400 0.02450
v -0.03750 0.21600 0.05850
v 0.03750 0.21600 0.05850
v 0.03750 0.23400 0.05850
v -0.03750 0.23400 0.05850
usemtl plastico_beige
f 81 82 83 84
f 86 85 88 87
f 85 81 84 88
f 82 86 87 83
f 84 83 87 88
f 85 86 82 81
v 0.06750 0.21600 0.02450
v 0.14250 0.21600 0.02450
v 0.14250 0.23400 0.02450
v 0.06750 0.23400 0.02450
v 0.06750 0.21600 0.05850
v 0.14250 0.21600 0.05850
v 0.14250 0.23400 0.05850
v 0.06750 0.23400 0.05850
usemtl plastico_beige
f 89 90 91 92
f 94 93 96 95
f 93 89 92 96
f 90 94 95 91
f 92 91 95 96
f 93 94 90 89
v -0.14250 0.21600 0.07150
v -0.06750 0.21600 0.07150
v -0.06750 0.23400 0.07150
v -0.14250 0.23400 0.07150
v -0.14250 0.21600 0.10550
v -0.06750 0.21600 0.10550
v -0.06750 0.23400 0.10550
v -0.14250 0.23400 0.10550
usemtl plastico_beige
f 97 98 99 100
f 102 101 104 103
f 101 97 100 104
f 98 102 103 99
f 100 99 103 104
f 101 102 98 97
v -0.03750 0.21600 0.07150
v 0.03750 0.21600 0.07150
v 0.03750 0.23400 0.07150
v -0.03750 0.23400 0.07150
v -0.03750 0.21600 0.10550
v 0.03750 0.21600 0.10550
v 0.03750 0.23400 0.10550
v -0.03750 0.23400 0.10550
usemtl plastico_beige
f 105 106 107 108
f 110 109 112 111
f 109 105 108 112
f 106 110 111 107
f 108 107 111 112
f 109 110 106 105
v 0.06750 0.21600 0.07150
v 0.14250 0.21600 0.07150
v 0.14250 0.23400 0.07150
v 0.06750 0.23400 0.07150
v 0.06750 0.21600 0.10550
v 0.14250 0.21600 0.10550
v 0.14250 0.23400 0.10550
v 0.06750 0.23400 0.10550
usemtl plastico_beige
f 113 114 115 116
f 118 117 120 119
f 117 113 116 120
f 114 118 119 115
f 116 115 119 120
f 117 118 114 113
v -0.25000 0.18800 0.16050
v -0.19000 0.18800 0.16050
v -0.19000 0.20800 0.16050
v -0.25000 0.20800 0.16050
v -0.25000 0.18800 0.19550
v -0.19000 0.18800 0.19550
v -0.19000 0.20800 0.19550
v -0.25000 0.20800 0.19550
usemtl vidrio_oscuro
f 121 122 123 124
f 126 125 128 127
f 125 121 124 128
f 122 126 127 123
f 124 123 127 128
f 125 126 122 121
v 0.19000 0.18800 0.16050
v 0.25000 0.18800 0.16050
v 0.25000 0.20800 0.16050
v 0.19000 0.20800 0.16050
v 0.19000 0.18800 0.19550
v 0.25000 0.18800 0.19550
v 0.25000 0.20800 0.19550
v 0.19000 0.20800 0.19550
usemtl vidrio_oscuro
f 129 130 131 132
f 134 133 136 135
f 133 129 132 136
f 130 134 135 131
f 132 131 135 136
f 133 134 130 129
